<?xml version="1.0" standalone="no"?>
<!DOCTYPE svg PUBLIC "-//W3C//DTD SVG 20010904//EN"
 "http://www.w3.org/TR/2001/REC-SVG-20010904/DTD/svg10.dtd">
<svg version="1.0" xmlns="http://www.w3.org/2000/svg"
 width="3464.000000pt" height="3464.000000pt" viewBox="0 0 3464.000000 3464.000000"
 preserveAspectRatio="xMidYMid meet">
<metadata>
Created by potrace 1.16, written by Peter Selinger 2001-2019
</metadata>
<g transform="translate(0.000000,3464.000000) scale(0.100000,-0.100000)"
fill="#000000" stroke="none">
<path d="M15233 33061 c-130 -6 -143 -8 -161 -28 -18 -22 -27 -23 -143 -23
-159 -1 -255 -13 -288 -38 -21 -16 -49 -20 -156 -24 -125 -5 -205 -23 -205
-46 0 -5 -48 -12 -107 -15 -113 -6 -172 -19 -184 -38 -4 -6 -50 -16 -104 -20
-60 -6 -112 -17 -137 -29 -23 -11 -64 -23 -92 -26 -28 -4 -71 -18 -95 -31 -27
-14 -61 -23 -90 -23 -64 -1 -119 -15 -152 -39 -20 -15 -43 -21 -78 -21 -69 0
-150 -19 -170 -39 -13 -13 -42 -20 -101 -24 -71 -6 -88 -11 -110 -32 -16 -16
-38 -25 -57 -25 -52 0 -136 -19 -153 -35 -10 -9 -46 -20 -81 -26 -35 -5 -75
-18 -89 -28 -14 -10 -45 -22 -69 -26 -26 -4 -53 -17 -66 -31 -16 -17 -33 -24
-61 -24 -56 0 -112 -18 -123 -39 -8 -14 -26 -19 -76 -23 -49 -4 -75 -13 -103
-32 -21 -14 -49 -26 -63 -26 -37 0 -102 -20 -121 -37 -10 -9 -41 -20 -69 -24
-29 -5 -68 -19 -88 -33 -20 -13 -55 -27 -78 -31 -24 -4 -43 -11 -43 -16 0 -5
-7 -9 -15 -9 -8 0 -15 -4 -15 -8 0 -4 -20 -13 -45 -20 -25 -6 -54 -21 -65 -32
-11 -11 -33 -20 -49 -20 -42 0 -90 -19 -102 -41 -6 -12 -20 -19 -37 -19 -41 0
-93 -17 -116 -38 -12 -11 -41 -22 -65 -26 -24 -4 -56 -17 -71 -30 -16 -13 -48
-26 -75 -29 -28 -4 -59 -17 -77 -32 -16 -14 -35 -25 -42 -25 -7 0 -29 -11 -49
-24 -19 -13 -48 -27 -65 -31 -17 -3 -42 -17 -57 -31 -14 -13 -33 -24 -42 -24
-33 0 -95 -24 -103 -40 -5 -10 -27 -20 -50 -24 -25 -4 -51 -16 -64 -31 -13
-14 -33 -25 -45 -25 -27 0 -55 -14 -82 -41 -10 -10 -30 -19 -43 -19 -14 0 -38
-12 -55 -26 -17 -14 -47 -30 -67 -35 -19 -6 -44 -19 -54 -29 -10 -10 -37 -24
-59 -30 -22 -6 -46 -19 -53 -29 -7 -10 -25 -21 -39 -24 -14 -4 -42 -18 -63
-32 -20 -14 -43 -25 -50 -25 -7 0 -30 -13 -51 -30 -21 -16 -48 -30 -60 -30
-12 0 -39 -13 -60 -30 -21 -16 -44 -30 -51 -30 -8 0 -28 -13 -46 -30 -17 -16
-35 -30 -41 -30 -6 0 -25 -11 -43 -25 -18 -14 -40 -25 -48 -25 -9 0 -30 -13
-48 -30 -17 -17 -42 -30 -55 -30 -15 0 -36 -12 -52 -28 -15 -17 -42 -32 -64
-36 -23 -4 -43 -16 -53 -31 -9 -14 -24 -25 -34 -25 -10 0 -23 -7 -30 -15 -7
-8 -19 -15 -26 -15 -8 0 -14 -4 -14 -10 0 -5 -15 -16 -32 -25 -18 -8 -53 -31
-78 -50 -25 -19 -66 -45 -92 -56 -26 -12 -50 -30 -53 -40 -4 -11 -14 -19 -23
-19 -9 0 -35 -14 -56 -30 -22 -17 -45 -30 -51 -30 -6 0 -24 -13 -38 -30 -15
-16 -36 -30 -47 -30 -11 0 -34 -13 -52 -30 -17 -16 -37 -30 -44 -30 -8 0 -21
-11 -30 -25 -9 -14 -22 -25 -28 -25 -6 0 -26 -13 -44 -30 -18 -16 -40 -30 -47
-30 -8 0 -27 -11 -42 -25 -43 -39 -94 -73 -140 -94 -24 -11 -43 -25 -43 -30 0
-5 -15 -19 -32 -30 -39 -25 -92 -63 -132 -94 -15 -12 -47 -37 -70 -54 -22 -18
-54 -44 -71 -59 -55 -47 -108 -84 -121 -84 -7 0 -23 -13 -36 -30 -12 -16 -26
-30 -32 -30 -6 0 -22 -11 -36 -25 -48 -46 -104 -95 -110 -95 -4 0 -12 -11 -18
-25 -6 -14 -20 -25 -30 -25 -10 0 -33 -13 -52 -30 -19 -16 -39 -29 -44 -30 -6
0 -34 -25 -63 -55 -29 -30 -66 -61 -83 -70 -17 -9 -52 -37 -79 -63 -27 -26
-66 -60 -86 -77 -21 -16 -49 -42 -64 -56 -14 -14 -34 -28 -44 -32 -9 -3 -22
-17 -28 -31 -6 -13 -20 -27 -31 -29 -11 -3 -22 -15 -25 -26 -3 -12 -9 -21 -14
-21 -10 0 -27 -15 -135 -117 -34 -32 -83 -76 -109 -98 -25 -22 -97 -89 -160
-150 -62 -60 -148 -144 -191 -185 -100 -96 -214 -219 -214 -231 0 -5 -4 -9 -9
-9 -11 0 -74 -62 -121 -121 -19 -24 -50 -57 -67 -74 -18 -17 -33 -34 -33 -38
0 -10 -79 -87 -89 -87 -5 0 -15 -13 -22 -29 -7 -17 -22 -32 -32 -35 -10 -2
-21 -14 -24 -26 -3 -12 -16 -26 -30 -31 -13 -5 -27 -17 -30 -26 -4 -10 -33
-44 -65 -76 -32 -32 -58 -62 -58 -66 0 -5 -13 -23 -30 -41 -16 -18 -30 -36
-30 -41 0 -8 -57 -71 -140 -155 -16 -16 -30 -34 -30 -38 0 -4 -13 -19 -30 -33
-16 -13 -30 -28 -30 -33 0 -4 -13 -22 -30 -40 -16 -18 -30 -42 -30 -54 0 -15
-9 -27 -25 -34 -14 -7 -29 -20 -32 -29 -4 -10 -20 -28 -35 -41 -15 -13 -28
-27 -28 -32 0 -4 -23 -31 -51 -61 -27 -29 -53 -65 -56 -80 -3 -15 -18 -36 -34
-48 -16 -12 -29 -27 -29 -34 0 -7 -13 -25 -30 -40 -17 -16 -30 -36 -30 -44 0
-8 -14 -32 -30 -52 -17 -20 -40 -49 -53 -64 -12 -15 -37 -44 -54 -63 -18 -19
-33 -41 -33 -49 0 -8 -14 -30 -30 -48 -16 -19 -30 -40 -30 -46 0 -7 -13 -24
-30 -38 -16 -13 -30 -33 -30 -43 0 -10 -6 -20 -13 -23 -7 -2 -23 -24 -35 -48
-13 -24 -37 -62 -53 -84 -16 -22 -42 -58 -57 -80 -14 -22 -37 -50 -49 -62 -13
-12 -23 -28 -23 -36 0 -8 -11 -22 -25 -31 -15 -10 -27 -30 -31 -53 -4 -22 -19
-49 -36 -64 -19 -18 -28 -37 -28 -57 0 -22 -6 -32 -21 -37 -11 -4 -27 -22 -35
-41 -8 -19 -19 -34 -25 -34 -5 0 -16 -15 -24 -32 -8 -18 -26 -46 -40 -63 -14
-16 -25 -37 -25 -46 0 -8 -13 -28 -30 -44 -18 -17 -30 -39 -30 -55 0 -16 -11
-35 -30 -52 -18 -15 -30 -36 -30 -50 0 -14 -11 -34 -25 -46 -13 -12 -27 -34
-31 -49 -4 -15 -15 -37 -25 -48 -10 -12 -24 -36 -31 -55 -6 -19 -22 -43 -35
-53 -13 -10 -23 -25 -23 -32 0 -8 -11 -25 -25 -39 -14 -14 -28 -39 -31 -54 -3
-16 -16 -41 -29 -55 -13 -13 -27 -41 -30 -61 -4 -20 -16 -41 -26 -46 -10 -6
-24 -29 -31 -53 -6 -23 -22 -55 -34 -70 -13 -15 -26 -44 -30 -63 -4 -20 -17
-46 -30 -59 -13 -13 -24 -36 -24 -50 0 -14 -11 -34 -25 -47 -15 -13 -28 -37
-32 -61 -3 -21 -12 -41 -20 -44 -19 -7 -43 -56 -43 -87 0 -14 -8 -31 -18 -38
-24 -17 -42 -51 -42 -79 0 -12 -11 -32 -24 -44 -14 -13 -28 -40 -32 -61 -4
-22 -17 -51 -30 -66 -12 -15 -25 -47 -29 -70 -4 -24 -18 -56 -31 -71 -13 -16
-24 -40 -24 -54 0 -14 -11 -38 -25 -55 -14 -16 -28 -42 -31 -56 -6 -29 -8 -34
-38 -76 -10 -14 -21 -47 -24 -72 -3 -29 -11 -48 -22 -54 -19 -10 -40 -59 -40
-93 0 -12 -9 -30 -20 -42 -11 -12 -26 -49 -33 -83 -7 -36 -22 -71 -35 -85 -17
-18 -22 -35 -22 -78 0 -48 -4 -58 -30 -81 -19 -17 -30 -36 -30 -53 0 -15 -11
-40 -24 -56 -15 -17 -28 -49 -32 -77 -4 -29 -16 -57 -30 -72 -18 -19 -26 -42
-30 -88 -5 -45 -12 -66 -24 -72 -18 -10 -40 -79 -40 -125 0 -15 -11 -40 -23
-55 -17 -20 -26 -46 -30 -91 -4 -35 -13 -68 -20 -74 -27 -20 -37 -55 -37 -127
0 -69 -2 -75 -30 -100 -23 -20 -30 -35 -30 -64 0 -20 -7 -45 -16 -55 -22 -24
-43 -87 -44 -128 0 -21 -11 -50 -26 -72 -20 -29 -27 -53 -31 -116 -4 -59 -11
-83 -26 -100 -22 -25 -36 -84 -37 -157 0 -37 -6 -56 -21 -73 -18 -18 -23 -41
-30 -117 -6 -76 -13 -102 -31 -126 -19 -26 -24 -49 -29 -137 -6 -88 -10 -108
-29 -128 -16 -17 -23 -41 -27 -86 -4 -37 -16 -84 -30 -110 -18 -37 -24 -70
-29 -156 -5 -85 -10 -114 -26 -136 -21 -30 -37 -150 -38 -274 0 -37 -4 -63
-11 -63 -23 0 -37 -71 -43 -229 -6 -151 -9 -166 -30 -191 -22 -26 -23 -38 -29
-239 -7 -199 -8 -214 -29 -242 -22 -30 -23 -40 -29 -337 -9 -400 -9 -2465 0
-2879 6 -312 7 -322 28 -351 21 -29 23 -45 30 -256 8 -211 10 -226 30 -248 20
-21 22 -39 30 -200 8 -155 11 -181 29 -205 17 -23 22 -49 27 -154 7 -127 18
-180 43 -210 8 -8 14 -38 14 -65 1 -93 18 -186 39 -215 15 -20 21 -43 21 -78
0 -56 14 -100 36 -118 12 -9 18 -39 23 -117 5 -90 9 -108 29 -129 20 -21 24
-39 29 -123 5 -94 22 -154 43 -154 6 0 10 -22 10 -49 0 -72 18 -152 39 -175
13 -15 20 -43 24 -95 5 -55 12 -83 30 -110 16 -23 27 -58 31 -96 5 -39 15 -72
31 -96 16 -22 25 -49 25 -73 0 -28 7 -45 30 -68 27 -27 30 -36 30 -95 0 -55 4
-72 25 -98 17 -24 26 -51 31 -100 5 -49 13 -75 30 -95 13 -15 24 -38 24 -50 0
-43 23 -115 41 -132 11 -9 19 -29 19 -45 0 -42 17 -93 38 -117 11 -12 22 -41
26 -66 4 -24 18 -59 31 -76 14 -18 25 -45 25 -59 0 -17 11 -37 30 -55 26 -25
30 -35 30 -84 0 -47 4 -61 24 -79 16 -15 26 -38 31 -74 4 -34 15 -61 31 -78
13 -14 24 -37 24 -51 0 -32 22 -85 43 -103 10 -7 17 -28 17 -45 0 -17 9 -44
20 -61 36 -55 39 -60 44 -87 3 -14 17 -40 31 -56 14 -17 25 -41 25 -54 0 -14
11 -35 24 -47 14 -13 26 -38 29 -62 3 -22 13 -51 24 -66 30 -43 32 -47 38 -87
4 -22 17 -48 31 -61 13 -12 24 -32 24 -44 0 -28 18 -62 42 -79 11 -8 18 -25
18 -43 0 -20 10 -40 29 -59 16 -17 31 -44 34 -66 4 -20 17 -49 30 -63 14 -14
28 -43 31 -63 4 -21 15 -43 25 -50 9 -7 23 -35 31 -61 7 -26 21 -52 30 -57 10
-5 21 -26 24 -46 4 -20 18 -46 30 -58 13 -11 26 -37 30 -57 3 -20 17 -46 31
-59 14 -13 25 -31 25 -40 0 -8 13 -31 30 -50 16 -19 29 -42 30 -51 0 -8 11
-26 25 -39 14 -13 30 -41 35 -62 6 -21 19 -46 30 -55 10 -10 21 -30 25 -45 4
-14 18 -36 31 -49 13 -12 24 -31 24 -42 0 -10 14 -32 30 -47 17 -16 30 -38 30
-52 0 -14 13 -37 30 -53 16 -16 30 -34 30 -40 0 -21 30 -73 45 -79 8 -3 15
-11 15 -19 0 -7 11 -24 24 -36 13 -13 27 -33 30 -46 3 -12 17 -30 31 -39 16
-11 25 -26 25 -42 0 -16 12 -37 30 -54 17 -15 30 -36 30 -45 0 -23 20 -58 42
-73 10 -7 18 -19 18 -27 0 -8 14 -24 30 -37 17 -12 30 -31 30 -43 0 -12 9 -30
21 -41 12 -10 28 -32 36 -49 9 -16 22 -34 29 -38 8 -4 21 -23 28 -42 8 -18 23
-42 34 -53 10 -10 22 -31 26 -46 4 -15 18 -32 31 -38 14 -6 25 -18 25 -26 0
-8 14 -30 30 -49 17 -18 30 -39 30 -45 0 -10 29 -47 95 -121 14 -15 25 -31 25
-36 0 -4 11 -13 24 -19 14 -6 26 -22 29 -41 4 -18 17 -42 30 -54 14 -12 27
-31 31 -43 3 -12 18 -26 31 -32 14 -7 25 -20 25 -31 0 -10 16 -39 36 -63 19
-23 45 -56 57 -72 12 -16 34 -41 50 -56 15 -16 27 -33 27 -39 0 -6 14 -20 30
-33 17 -12 30 -27 30 -33 0 -6 13 -25 30 -43 16 -18 30 -38 30 -43 0 -5 15
-25 33 -44 17 -18 57 -61 87 -95 30 -33 70 -76 88 -95 17 -19 32 -38 32 -43 0
-5 11 -14 25 -20 14 -6 25 -20 25 -30 0 -11 16 -37 35 -58 73 -82 203 -220
288 -305 48 -49 87 -94 87 -99 0 -6 11 -16 25 -22 13 -6 27 -19 31 -30 3 -10
16 -26 30 -34 13 -9 24 -22 24 -29 0 -14 67 -85 80 -85 7 0 53 -43 202 -188 4
-4 40 -42 81 -84 41 -43 79 -78 86 -78 6 0 16 -11 21 -25 5 -14 14 -25 19 -25
6 0 64 -53 130 -118 127 -124 286 -275 336 -317 79 -68 127 -105 135 -105 5 0
11 -9 15 -19 3 -11 16 -23 27 -27 12 -3 45 -31 73 -60 28 -30 54 -54 58 -54 4
0 31 -24 62 -54 30 -30 71 -60 90 -67 19 -7 37 -21 41 -31 3 -10 15 -23 27
-29 23 -12 51 -36 95 -82 15 -15 31 -27 37 -27 6 0 21 -13 33 -30 13 -16 29
-30 36 -30 7 0 21 -9 32 -21 10 -12 32 -28 49 -37 16 -8 41 -27 56 -41 14 -14
42 -37 63 -51 20 -14 53 -40 74 -57 20 -18 42 -33 49 -33 6 0 18 -8 25 -19 7
-10 27 -25 43 -33 17 -9 38 -25 49 -36 10 -12 31 -24 46 -27 16 -3 36 -17 44
-31 9 -13 23 -24 31 -24 8 0 22 -11 31 -25 9 -13 25 -27 36 -31 20 -6 95 -58
128 -88 8 -7 25 -18 37 -25 13 -6 33 -21 46 -34 22 -20 47 -37 117 -78 16 -8
42 -27 59 -41 17 -15 44 -29 60 -33 16 -3 32 -12 35 -20 3 -8 22 -23 43 -35
21 -11 58 -36 83 -55 25 -19 61 -43 79 -52 19 -10 46 -28 59 -40 14 -13 33
-23 43 -23 10 0 32 -13 48 -29 16 -16 45 -32 63 -36 18 -4 40 -16 48 -26 16
-20 52 -42 138 -83 28 -14 52 -30 52 -35 0 -5 13 -14 30 -19 16 -6 45 -22 63
-36 19 -15 39 -26 45 -26 6 0 23 -11 38 -25 15 -14 45 -30 66 -37 22 -6 43
-20 49 -29 5 -10 27 -23 49 -29 22 -6 50 -21 63 -34 13 -13 41 -26 62 -30 22
-5 46 -18 57 -32 11 -13 27 -24 37 -24 9 0 32 -11 50 -24 19 -14 46 -28 61
-31 15 -3 36 -15 45 -25 10 -11 34 -25 54 -31 20 -6 44 -20 54 -30 10 -11 37
-24 62 -30 24 -6 51 -19 61 -30 9 -10 42 -23 73 -30 31 -7 63 -21 72 -31 8
-11 35 -24 59 -29 23 -5 56 -21 72 -34 16 -14 36 -25 43 -25 8 0 31 -11 51
-25 20 -13 51 -27 68 -31 18 -3 45 -16 60 -29 15 -13 45 -26 67 -30 22 -4 50
-17 62 -29 13 -13 42 -26 67 -30 25 -4 54 -15 65 -25 20 -17 88 -41 118 -41 9
0 27 -11 41 -25 17 -17 36 -25 60 -25 19 0 41 -6 48 -14 19 -18 74 -46 92 -46
8 0 32 -11 52 -25 20 -13 51 -27 70 -31 19 -3 34 -10 34 -15 0 -5 7 -9 15 -9
8 0 15 -4 15 -9 0 -5 30 -15 66 -22 36 -7 68 -19 71 -26 5 -14 48 -29 113 -38
25 -4 55 -16 66 -27 14 -12 48 -23 93 -30 39 -6 71 -15 71 -20 0 -15 67 -38
112 -38 31 0 49 -6 69 -26 17 -16 43 -28 70 -31 24 -4 49 -12 54 -19 11 -13
126 -44 165 -44 13 0 34 -10 46 -21 16 -15 45 -24 103 -32 45 -6 81 -14 81
-19 0 -14 47 -28 129 -39 53 -7 83 -17 99 -32 18 -16 40 -22 105 -26 66 -5 89
-11 117 -31 27 -19 50 -25 105 -28 38 -2 77 -10 85 -17 26 -21 99 -45 136 -45
20 0 47 -8 60 -19 16 -12 55 -23 112 -31 48 -6 103 -20 123 -31 25 -13 74 -23
145 -30 69 -6 125 -18 154 -31 33 -15 79 -22 179 -29 74 -5 138 -14 141 -19
15 -24 105 -40 222 -40 112 0 122 -2 165 -27 41 -24 61 -28 177 -35 145 -8
213 -19 266 -39 52 -21 4148 -21 4200 0 51 20 118 30 270 40 128 9 210 28 210
50 0 5 66 11 148 13 132 3 151 5 186 26 31 19 62 25 155 31 118 9 144 15 171
36 8 7 68 17 134 23 94 8 125 15 147 31 15 12 43 21 61 21 62 0 163 21 196 41
18 10 50 19 72 19 23 0 60 12 95 30 46 24 69 30 121 30 65 0 101 11 143 42 17
13 42 18 85 18 48 0 75 6 121 30 36 18 76 29 101 30 51 0 101 17 108 36 3 8
19 14 40 14 53 0 138 20 166 40 14 9 59 25 100 34 41 10 80 23 85 30 6 7 30
16 55 20 25 4 56 17 70 30 18 18 40 25 83 28 38 3 68 12 86 26 16 12 57 26 92
31 35 6 71 19 83 29 12 11 47 24 79 30 32 7 71 21 86 31 16 11 48 23 72 27 24
3 60 16 79 28 19 12 60 30 91 39 31 10 62 24 69 32 7 8 23 15 37 15 27 0 79
24 85 40 1 5 27 14 56 20 30 5 66 19 82 30 15 11 51 25 79 31 28 6 57 19 64
29 6 9 31 21 55 25 23 4 55 17 70 29 15 12 52 30 83 39 31 10 62 24 69 32 6 7
26 17 43 20 18 4 46 18 64 31 17 13 39 24 48 24 9 0 27 11 41 25 14 14 42 28
65 31 22 4 56 17 75 30 19 13 53 28 76 33 22 5 50 18 61 29 12 11 40 25 63 31
22 6 49 19 58 30 9 10 37 24 62 31 25 7 50 20 57 30 7 9 25 20 41 24 16 4 43
18 59 32 16 13 35 24 42 24 7 0 22 11 32 23 11 14 35 27 57 31 21 4 48 17 61
30 12 12 40 27 63 34 23 7 47 21 54 31 7 10 29 22 48 26 19 4 49 20 67 35 17
16 45 31 62 35 17 4 34 12 38 19 5 8 23 21 41 30 18 9 41 25 52 36 10 10 32
21 49 25 17 4 37 15 44 25 7 10 28 25 47 34 65 30 125 66 141 85 8 10 29 22
46 25 17 4 41 17 54 29 13 12 45 32 71 44 26 12 48 27 48 33 0 5 7 10 15 10 9
0 27 11 41 25 14 14 37 31 53 39 15 8 33 22 40 30 8 9 31 20 52 26 22 6 40 18
44 29 3 10 22 26 43 35 40 17 91 52 135 91 15 14 33 25 41 25 7 0 25 11 40 25
15 13 37 30 49 36 24 13 35 22 84 67 17 16 46 35 64 42 17 8 43 24 57 37 14
13 31 23 38 23 8 0 21 11 29 24 9 13 26 27 38 30 13 3 37 18 55 33 18 15 51
42 73 58 22 17 55 45 74 63 19 17 39 32 44 32 5 0 12 8 15 18 4 10 21 23 40
30 18 7 49 26 67 42 19 17 48 42 64 55 17 14 44 37 62 51 17 14 55 49 85 77
29 28 69 59 88 68 19 9 60 40 90 68 106 98 121 111 129 111 4 0 19 10 33 23
40 36 111 98 174 152 32 28 100 91 150 140 51 50 99 96 106 102 17 16 35 33
56 55 9 10 37 38 61 63 24 25 48 45 53 45 4 0 13 11 19 24 6 13 20 27 31 29
11 3 22 14 25 25 2 11 14 24 26 30 27 12 91 66 126 106 14 16 41 44 59 63 17
19 32 37 32 42 0 4 11 14 25 21 13 7 27 21 30 30 3 9 17 23 30 30 14 7 25 19
25 26 0 7 10 19 22 25 12 7 39 31 59 53 20 23 49 55 63 71 15 17 89 94 164
172 225 233 311 326 331 358 10 17 28 39 40 49 11 11 21 23 21 29 0 5 12 21
28 37 15 15 50 54 79 86 29 33 66 74 83 93 16 19 30 37 30 42 0 4 16 26 35 49
19 23 35 48 35 56 0 8 7 14 15 14 8 0 26 17 39 37 13 21 43 59 67 85 61 66
109 132 109 151 0 9 9 19 21 22 11 4 25 19 32 33 6 15 24 42 39 60 15 18 28
42 28 53 0 11 10 23 24 29 13 5 27 18 31 29 3 10 17 26 30 35 14 9 25 21 25
27 0 6 14 27 30 46 17 18 30 40 30 48 0 8 14 27 30 42 17 14 30 33 30 42 0 9
10 21 22 26 13 6 27 23 33 40 5 16 18 38 28 48 10 10 25 34 33 53 8 19 19 34
24 34 5 0 18 17 29 37 10 21 28 47 40 57 12 11 21 26 21 35 0 9 13 29 30 44
16 16 30 33 30 39 0 6 11 21 25 34 13 12 27 35 31 51 4 15 20 40 35 55 16 15
29 37 29 51 0 13 14 38 30 55 17 18 30 38 30 46 0 8 7 16 15 20 8 3 23 21 32
41 9 19 20 35 24 35 8 0 39 57 39 72 0 5 14 23 30 40 19 19 30 40 30 58 0 18
8 33 25 44 14 9 28 28 31 42 4 14 18 38 31 52 13 15 27 39 30 55 3 16 12 31
19 34 7 3 21 26 30 51 10 26 26 58 36 72 45 60 88 131 88 143 0 7 11 24 25 37
15 14 28 40 31 62 4 21 11 38 15 38 14 0 49 62 49 85 0 11 9 26 20 32 10 7 25
32 31 55 7 24 23 53 35 66 12 12 24 39 28 60 3 21 15 47 26 57 11 10 22 33 26
51 3 18 19 47 35 64 17 17 29 41 29 56 0 15 13 41 30 61 17 19 30 45 30 60 0
15 11 39 25 53 14 15 29 44 32 66 4 22 16 46 29 56 14 11 24 34 28 63 4 24 13
48 20 52 19 11 36 48 36 76 0 13 13 41 30 63 16 21 30 51 30 66 0 15 6 31 13
35 17 10 47 75 47 101 0 11 11 34 25 50 13 16 27 49 31 73 4 24 15 53 26 65
21 24 38 75 38 117 0 19 9 36 24 48 19 15 26 32 31 81 6 48 13 66 31 81 13 10
24 27 24 37 0 10 14 44 30 75 16 31 30 72 30 91 0 23 6 37 20 44 21 11 40 67
40 119 0 23 8 44 25 61 18 19 26 41 31 85 4 37 14 68 26 81 22 25 38 76 38
123 0 21 8 43 21 57 15 16 24 44 31 105 8 66 15 88 32 104 13 12 26 39 29 63
4 22 16 57 28 76 11 19 23 61 26 93 4 38 13 66 26 80 22 24 36 84 37 154 0 34
6 53 24 74 28 33 36 65 36 148 0 48 4 65 22 84 22 24 36 86 37 167 1 36 7 55
25 77 20 24 25 43 31 126 5 72 13 110 29 143 13 25 26 69 29 99 4 29 15 72 26
95 13 27 22 73 27 136 5 69 13 109 31 148 20 43 26 74 30 170 3 70 11 123 18
132 25 30 34 84 40 233 6 132 10 156 28 182 24 33 36 143 37 333 0 102 2 117
23 145 21 31 22 42 28 322 9 376 9 2651 0 3037 -6 283 -7 297 -27 320 -20 21
-22 38 -27 235 -6 210 -18 283 -46 283 -7 0 -11 33 -11 88 -1 147 -16 267 -38
299 -17 23 -21 50 -25 150 -4 104 -9 130 -31 177 -17 35 -26 72 -26 103 0 72
-18 171 -40 219 -11 24 -20 57 -20 74 0 17 -11 52 -24 78 -18 35 -26 71 -30
141 -7 94 -17 129 -42 144 -9 5 -14 26 -14 55 0 77 -18 164 -39 186 -14 16
-20 41 -23 103 -4 67 -9 89 -30 120 -20 30 -27 54 -31 111 -3 56 -10 81 -28
105 -13 18 -26 54 -30 82 -4 28 -16 71 -28 95 -11 24 -24 59 -27 79 -8 42 -29
88 -44 93 -5 1 -13 38 -16 80 -6 63 -11 81 -30 99 -17 16 -24 34 -24 63 -1 51
-24 117 -44 128 -11 6 -16 24 -16 53 0 50 -13 91 -39 120 -11 12 -21 41 -23
72 -3 28 -14 64 -24 79 -32 45 -33 47 -39 96 -4 31 -14 55 -30 70 -14 13 -25
33 -25 46 0 27 -26 82 -39 82 -5 0 -11 26 -15 59 -5 43 -13 64 -31 81 -14 13
-25 35 -25 49 0 43 -20 100 -39 113 -10 8 -20 31 -24 56 -3 24 -17 60 -31 81
-14 20 -26 49 -26 65 0 31 -26 86 -40 86 -5 0 -13 12 -16 28 -4 15 -19 47 -34
72 -15 25 -31 62 -34 82 -4 21 -15 43 -25 50 -11 8 -21 32 -25 61 -5 34 -14
52 -32 63 -16 11 -24 26 -24 46 0 33 -13 61 -41 89 -10 10 -19 32 -19 47 0 16
-13 47 -30 70 -16 23 -30 49 -30 57 0 21 -25 68 -44 84 -9 8 -16 22 -16 33 0
10 -11 29 -24 41 -13 13 -27 40 -31 60 -5 23 -16 44 -30 53 -15 10 -24 28 -28
57 -4 29 -14 48 -31 62 -19 15 -26 30 -26 54 0 24 -8 40 -30 59 -17 15 -30 36
-30 49 0 12 -14 38 -30 56 -17 19 -30 42 -30 51 0 24 -20 58 -42 74 -10 7 -18
20 -18 28 0 8 -11 25 -24 37 -12 12 -26 39 -30 60 -4 23 -16 43 -31 53 -14 9
-25 25 -25 36 0 26 -26 74 -43 81 -8 3 -17 19 -20 36 -4 18 -18 43 -32 57 -14
14 -25 31 -25 39 0 8 -13 29 -28 47 -16 18 -34 48 -41 66 -8 17 -18 32 -23 32
-5 0 -16 16 -23 35 -8 19 -23 39 -34 44 -10 6 -22 26 -25 45 -4 20 -18 44 -31
55 -14 10 -25 26 -25 35 0 8 -13 31 -30 49 -16 19 -30 39 -30 45 0 6 -12 25
-26 42 -15 17 -36 48 -48 70 -33 60 -75 120 -85 120 -5 0 -12 11 -15 25 -4 14
-18 31 -31 37 -14 6 -25 20 -25 30 0 25 -28 78 -41 78 -5 0 -14 11 -19 24 -5
14 -20 32 -33 41 -14 9 -27 29 -31 46 -3 16 -17 40 -31 53 -14 13 -25 29 -25
36 0 6 -12 25 -27 40 -41 42 -78 91 -97 128 -9 17 -21 32 -26 32 -5 0 -16 15
-24 34 -8 19 -24 37 -35 41 -12 3 -21 12 -21 20 0 7 -16 32 -35 55 -19 23 -35
48 -35 56 0 7 -11 21 -25 30 -14 9 -25 21 -25 28 0 11 -6 17 -108 122 -32 34
-62 72 -65 86 -4 13 -20 40 -37 59 -40 45 -80 92 -107 126 -21 26 -123 144
-179 205 -13 15 -24 31 -24 35 0 5 -40 51 -90 102 -49 51 -90 97 -90 102 0 5
-11 15 -25 21 -14 6 -25 17 -25 24 0 8 -13 23 -30 36 -16 12 -30 27 -30 33 0
14 -85 108 -240 265 -63 64 -163 166 -221 226 -195 201 -448 440 -498 469 -21
12 -43 32 -120 108 -32 31 -62 57 -65 57 -4 0 -31 25 -61 55 -29 30 -59 55
-65 55 -7 0 -54 41 -105 90 -51 50 -97 90 -103 90 -5 0 -25 15 -44 33 -74 67
-179 147 -196 147 -7 0 -18 11 -24 25 -6 14 -14 25 -18 25 -6 0 -62 49 -110
95 -14 14 -29 25 -33 25 -5 0 -20 14 -34 30 -13 17 -31 30 -39 30 -7 0 -29 14
-47 30 -19 17 -38 30 -42 30 -4 0 -19 12 -35 28 -15 15 -46 41 -69 57 -23 17
-50 37 -59 45 -9 9 -34 25 -55 35 -21 11 -45 30 -53 43 -8 12 -20 22 -27 22
-7 0 -26 14 -42 30 -16 17 -37 30 -46 30 -10 0 -31 11 -46 25 -57 52 -115 95
-128 95 -7 0 -15 6 -18 13 -2 7 -24 22 -48 34 -24 12 -50 31 -57 43 -7 11 -18
20 -26 20 -8 0 -21 11 -30 24 -8 13 -29 27 -45 31 -16 3 -43 19 -60 36 -17 16
-37 29 -46 29 -8 0 -19 8 -24 19 -6 10 -31 25 -56 32 -25 7 -45 19 -45 25 0
14 -44 44 -65 44 -8 0 -15 4 -15 9 0 5 -19 19 -42 31 -24 12 -55 33 -71 46
-16 13 -32 24 -37 24 -5 0 -15 6 -22 13 -19 16 -48 35 -76 47 -12 5 -32 19
-44 30 -12 11 -36 24 -53 29 -17 5 -43 20 -58 35 -14 14 -37 26 -50 26 -13 0
-38 14 -55 30 -18 17 -39 30 -47 30 -8 0 -34 14 -57 30 -22 17 -47 30 -54 30
-7 0 -18 9 -23 19 -6 10 -24 24 -41 29 -16 6 -45 22 -62 35 -18 13 -46 28 -62
31 -16 4 -43 18 -59 32 -16 13 -34 24 -41 24 -7 0 -21 9 -31 20 -10 11 -42 27
-71 36 -28 8 -59 23 -68 33 -10 11 -32 22 -49 25 -18 3 -40 15 -49 26 -9 10
-34 24 -55 29 -21 6 -46 19 -55 30 -10 11 -30 23 -45 26 -28 6 -33 9 -88 45
-16 11 -39 20 -51 20 -11 0 -31 11 -44 25 -13 14 -39 28 -59 31 -20 4 -48 17
-63 29 -15 12 -44 26 -65 30 -21 4 -46 15 -56 26 -10 10 -38 24 -63 30 -25 7
-48 18 -51 25 -3 8 -27 20 -53 28 -27 8 -57 23 -68 34 -11 11 -39 23 -63 27
-24 4 -60 18 -80 31 -20 14 -54 28 -75 31 -22 3 -52 16 -67 29 -17 14 -48 26
-78 30 -32 4 -62 16 -80 31 -16 14 -48 27 -72 30 -23 3 -54 16 -69 28 -15 12
-43 26 -64 29 -20 4 -49 17 -64 28 -15 11 -49 24 -76 29 -26 5 -57 18 -69 29
-11 10 -40 22 -65 26 -25 3 -61 17 -80 30 -20 13 -58 27 -85 30 -28 4 -66 17
-86 30 -21 15 -58 27 -90 31 -32 3 -61 13 -71 24 -22 22 -79 39 -135 39 -24 0
-43 5 -43 10 0 6 -7 10 -15 10 -8 0 -15 4 -15 10 0 5 -19 14 -42 20 -24 6 -59
19 -78 29 -19 11 -60 22 -90 25 -30 4 -77 18 -105 31 -28 14 -78 28 -115 31
-44 4 -76 14 -100 30 -25 17 -56 25 -110 30 -49 5 -84 14 -101 26 -33 25 -88
37 -161 38 -32 0 -58 5 -58 10 0 6 -6 10 -14 10 -8 0 -16 5 -18 11 -4 13 -76
28 -137 29 -28 0 -60 9 -85 24 -23 13 -62 26 -89 29 -26 4 -64 15 -85 26 -24
12 -75 22 -146 29 -59 5 -111 14 -115 20 -12 21 -61 31 -168 37 -86 5 -118 12
-159 31 -44 21 -71 26 -180 31 -110 5 -132 9 -151 25 -27 25 -121 37 -290 38
-111 0 -125 2 -157 23 -32 22 -46 24 -238 30 -244 8 -3883 6 -4085 -2z m-2233
-7836 c241 -14 281 -19 410 -49 36 -8 121 -25 190 -36 126 -22 385 -88 450
-115 19 -8 71 -22 115 -31 44 -8 94 -22 110 -31 32 -16 134 -53 227 -83 124
-39 389 -159 516 -233 48 -28 112 -64 142 -81 30 -16 71 -42 90 -56 19 -15 73
-55 120 -89 47 -35 121 -97 165 -139 44 -43 105 -100 135 -128 147 -137 208
-222 331 -459 69 -134 94 -194 118 -285 43 -162 59 -254 72 -410 22 -254 -2
-508 -69 -735 -11 -38 -24 -86 -27 -105 -4 -19 -20 -66 -35 -105 -16 -38 -54
-135 -85 -215 -31 -80 -67 -161 -78 -180 -12 -19 -31 -53 -42 -76 -11 -22 -42
-71 -68 -110 -27 -38 -72 -106 -100 -151 -29 -44 -85 -123 -124 -175 -40 -51
-94 -121 -120 -155 -126 -164 -639 -678 -768 -768 -27 -19 -84 -64 -125 -100
-41 -35 -117 -97 -169 -137 -51 -40 -129 -101 -172 -136 -43 -34 -106 -78
-139 -98 -34 -20 -76 -48 -93 -64 -38 -33 -144 -108 -207 -147 -25 -15 -98
-64 -162 -108 -64 -44 -150 -99 -190 -123 -40 -24 -100 -59 -133 -79 -33 -19
-98 -58 -145 -85 -47 -27 -94 -58 -105 -68 -11 -10 -49 -35 -85 -56 -203 -116
-285 -162 -375 -212 -55 -30 -116 -64 -135 -77 -19 -12 -66 -40 -105 -62 -38
-22 -115 -66 -170 -98 -55 -32 -134 -77 -175 -100 -75 -42 -119 -68 -271 -158
-44 -26 -122 -68 -172 -93 -51 -25 -97 -50 -102 -54 -6 -5 -60 -34 -120 -65
-60 -31 -125 -69 -144 -84 -20 -15 -66 -38 -102 -51 -36 -12 -90 -39 -120 -59
-61 -42 -132 -138 -150 -204 -14 -53 -7 -384 10 -414 10 -20 128 -73 162 -73
9 0 41 -9 72 -19 30 -11 102 -27 159 -36 133 -21 446 -82 523 -102 33 -8 116
-26 185 -38 130 -24 488 -102 500 -110 4 -2 86 -18 182 -34 96 -17 194 -37
218 -46 23 -8 102 -26 174 -40 160 -31 246 -48 401 -82 66 -14 154 -32 195
-39 41 -7 152 -31 245 -53 94 -22 215 -48 270 -59 104 -21 283 -58 445 -93
158 -34 456 -98 610 -129 80 -17 165 -37 190 -45 25 -8 79 -19 120 -24 94 -13
226 -54 271 -83 19 -13 44 -43 57 -68 12 -24 28 -50 35 -57 15 -15 104 -29
277 -43 74 -5 187 -17 250 -25 63 -8 187 -21 275 -30 88 -9 243 -25 345 -36
102 -11 246 -27 320 -34 179 -19 469 -53 550 -64 36 -5 117 -14 180 -21 63 -6
187 -20 275 -31 88 -10 250 -28 360 -38 110 -11 344 -36 520 -56 455 -51 474
-53 635 -65 80 -5 201 -14 270 -20 296 -24 744 -50 853 -50 127 0 157 8 157
43 0 69 33 119 171 263 47 50 76 127 88 238 14 130 -11 435 -45 556 -21 73
-43 305 -44 455 0 122 6 159 60 400 35 154 52 328 40 403 -20 122 -62 146
-226 136 -82 -6 -110 -11 -141 -30 -68 -42 -101 -54 -180 -65 -43 -6 -86 -18
-95 -27 -20 -17 -24 -57 -8 -67 6 -4 22 -24 35 -45 13 -21 37 -45 52 -52 34
-16 78 -80 93 -134 10 -36 9 -48 -7 -85 -40 -89 -152 -166 -216 -148 -17 5
-35 13 -41 19 -32 32 -108 -25 -121 -90 -8 -38 -54 -93 -97 -116 -15 -8 -45
-14 -68 -14 -36 0 -48 7 -94 50 -43 41 -60 50 -88 50 -30 0 -38 -5 -48 -29
-21 -51 -45 -65 -108 -64 -342 5 -423 5 -457 -1 -87 -16 -301 102 -336 186 -8
18 -14 56 -14 83 0 42 6 58 38 100 20 28 52 73 71 100 18 28 43 59 55 69 24
22 27 63 7 92 -12 15 -26 19 -75 19 -58 -1 -62 -2 -96 -42 -40 -47 -111 -79
-213 -95 -35 -5 -89 -23 -120 -40 -54 -28 -61 -29 -138 -23 -75 7 -85 5 -130
-19 -62 -33 -94 -33 -134 0 -24 20 -47 28 -100 34 -77 8 -92 17 -110 60 -9 22
-9 37 -1 61 23 66 17 76 -48 82 -72 6 -104 26 -130 80 -16 34 -19 54 -14 103
5 60 5 62 -32 103 l-38 42 -86 -7 c-84 -6 -87 -5 -110 20 -25 26 -64 35 -76
16 -13 -21 -57 -10 -84 21 -14 17 -43 51 -65 75 -36 42 -54 84 -86 214 -5 19
-14 91 -20 158 -10 118 -9 126 11 170 12 26 25 75 29 108 8 69 31 108 87 152
33 24 47 28 142 33 80 4 122 12 171 31 46 18 94 28 165 33 140 10 142 12 147
131 l3 96 37 32 c44 38 96 56 165 56 46 0 62 -7 179 -83 71 -45 142 -88 157
-95 66 -29 114 -1 141 84 18 55 35 75 88 103 18 10 38 29 45 42 54 109 63 133
63 168 0 49 -26 71 -85 71 -33 0 -55 -10 -124 -60 -111 -79 -127 -84 -226 -65
-135 26 -179 69 -157 152 16 60 15 76 -9 107 -26 33 -52 33 -84 -1 -22 -24
-26 -35 -21 -68 9 -75 -36 -143 -109 -161 -16 -4 -56 -20 -88 -35 -54 -25 -63
-27 -165 -22 -118 6 -146 16 -186 65 -94 115 -107 136 -128 208 -21 74 -64 69
-162 -19 -43 -40 -76 -62 -98 -65 -18 -3 -53 -8 -78 -12 -97 -15 -136 -11
-181 21 -66 47 -94 109 -95 216 -1 133 -25 169 -112 169 -82 0 -112 53 -112
194 0 112 11 141 56 156 43 15 74 54 74 95 0 21 12 47 35 78 46 60 45 85 -8
145 -24 26 -49 64 -56 83 -26 71 -36 83 -76 94 -56 16 -81 64 -64 128 15 62
87 145 153 177 49 24 51 27 54 70 1 25 5 55 7 67 6 24 113 151 142 167 10 6
48 13 85 17 65 6 69 8 115 57 35 36 60 54 93 62 25 7 63 21 85 33 22 11 67 26
100 34 97 23 150 88 139 171 -12 96 30 126 158 114 46 -5 124 -7 174 -4 106 5
155 -7 274 -70 53 -27 84 -51 107 -82 37 -50 68 -64 208 -91 137 -27 184 -33
253 -34 36 -1 76 -8 93 -16 34 -18 127 -140 170 -223 31 -62 69 -92 116 -92
42 0 117 51 157 107 53 74 102 97 207 98 107 0 132 16 127 79 -3 36 -7 42 -48
62 -85 44 -191 73 -241 67 -56 -7 -186 13 -217 33 -34 22 -62 74 -62 116 0 50
-32 85 -129 141 -44 26 -85 56 -91 66 -5 11 -17 53 -25 93 -9 42 -28 94 -46
123 -46 74 -48 112 -10 195 37 79 36 106 -4 160 -27 37 -40 73 -49 136 -5 37
-2 48 29 90 19 27 44 65 55 86 36 66 61 78 164 78 58 0 98 5 109 13 9 6 27 39
40 72 18 46 33 67 68 92 24 18 59 44 78 58 38 28 71 38 177 55 72 11 72 11
129 -21 l58 -32 47 26 c68 38 120 37 154 -4 14 -17 26 -37 26 -44 0 -7 12 -23
26 -34 22 -18 35 -20 80 -15 62 8 75 0 106 -60 23 -46 85 -123 105 -130 7 -3
36 6 66 19 29 14 78 27 108 29 31 3 75 16 103 30 30 16 66 26 91 26 86 0 125
28 125 90 0 49 -27 88 -85 126 -67 42 -82 67 -64 101 15 27 131 116 192 147
43 22 54 51 38 97 -28 81 -1 124 71 117 60 -7 91 12 112 66 35 91 105 111 191
54 36 -24 62 -33 104 -35 73 -6 103 -18 129 -53 15 -19 41 -35 79 -47 47 -15
62 -26 92 -67 26 -36 50 -56 95 -77 121 -57 160 -52 211 26 20 33 46 60 63 66
15 6 54 24 87 40 95 47 139 38 202 -42 30 -38 34 -50 33 -94 -4 -80 -2 -83 49
-120 40 -29 50 -42 55 -75 4 -28 19 -55 47 -85 l41 -45 -6 -87 c-4 -49 -3 -93
1 -99 4 -6 27 -21 51 -33 24 -12 60 -37 80 -55 68 -61 107 -55 157 24 14 22
44 52 68 67 23 15 64 47 90 71 l48 44 86 -4 86 -3 62 -68 c73 -82 94 -85 137
-20 64 95 150 71 172 -48 8 -45 27 -62 92 -83 63 -21 82 -41 92 -96 10 -59 29
-69 91 -47 62 22 77 21 101 -3 17 -17 20 -33 20 -105 0 -92 -8 -115 -63 -192
-34 -48 -32 -70 8 -130 37 -53 39 -73 20 -175 -29 -158 -53 -202 -119 -219
-79 -19 -95 -30 -116 -75 -26 -53 -31 -56 -96 -65 -28 -4 -69 -18 -90 -33 -22
-14 -63 -30 -92 -36 -66 -12 -92 -26 -92 -48 0 -9 16 -48 35 -86 58 -114 48
-146 -62 -206 -100 -55 -173 -116 -173 -145 0 -25 96 -114 154 -141 35 -17 37
-17 83 5 28 13 60 39 78 63 17 22 56 60 87 85 32 24 62 52 67 62 5 9 17 57 26
106 18 94 49 167 84 199 24 22 54 17 105 -18 19 -13 57 -26 84 -29 27 -3 67
-15 90 -27 44 -23 63 -19 107 21 31 28 78 34 98 14 20 -19 21 -37 6 -102 -10
-43 -9 -54 9 -88 11 -22 29 -49 41 -59 25 -23 27 -51 5 -60 -32 -12 -66 -5
-89 19 -20 19 -25 34 -25 74 0 40 -4 53 -22 65 -29 20 -91 20 -129 0 -24 -12
-47 -14 -105 -9 -40 4 -85 4 -98 1 -28 -7 -95 -111 -121 -188 -21 -61 -43 -78
-155 -129 -52 -23 -112 -57 -134 -75 -74 -63 -133 -57 -217 22 -43 42 -76 62
-141 88 -47 18 -101 45 -121 60 -69 53 -134 52 -206 -3 -31 -24 -42 -26 -111
-23 -67 2 -79 0 -96 -19 -45 -50 -116 -61 -129 -20 -11 36 -37 46 -139 54
-228 20 -262 13 -322 -60 -24 -29 -57 -54 -90 -69 -54 -24 -58 -30 -70 -99 -9
-57 -28 -81 -71 -95 -82 -26 -84 -30 -77 -128 6 -80 5 -88 -15 -106 -17 -15
-31 -18 -73 -14 -47 5 -139 -10 -154 -25 -8 -7 24 -67 36 -67 17 0 70 -91 86
-148 10 -35 31 -71 60 -103 48 -54 52 -71 29 -126 -9 -20 -12 -40 -8 -43 19
-17 78 -29 116 -24 34 5 48 2 70 -16 15 -12 27 -31 27 -43 0 -40 20 -95 37
-101 9 -4 25 2 37 13 35 33 91 52 120 42 31 -12 39 -25 51 -85 8 -41 16 -52
47 -70 36 -20 39 -20 65 -4 75 46 91 52 118 40 16 -7 34 -30 46 -58 13 -29 33
-53 54 -65 18 -11 36 -26 39 -34 8 -21 -9 -168 -23 -193 -14 -26 -39 -29 -48
-4 -3 9 -21 37 -38 62 -18 25 -44 68 -58 96 -37 73 -81 90 -139 54 -18 -11
-45 -20 -60 -20 -34 0 -78 51 -78 91 0 22 -8 34 -32 49 -18 11 -36 20 -40 20
-3 0 -18 -20 -32 -44 -24 -41 -69 -86 -86 -86 -19 0 -71 103 -77 152 -8 77
-15 81 -96 73 -47 -4 -73 -3 -83 6 -23 19 -17 79 13 121 l26 38 -24 26 c-13
15 -41 37 -61 50 -35 23 -38 28 -38 73 0 60 -22 89 -72 98 -49 7 -88 -10 -113
-50 -22 -35 -65 -50 -65 -23 0 9 4 16 9 16 5 0 14 13 19 29 11 31 5 43 -52
115 -26 32 -28 40 -17 63 11 25 14 25 72 19 59 -7 62 -6 103 28 34 27 45 44
50 75 7 43 47 91 100 118 17 8 54 35 82 59 43 36 52 50 63 98 7 30 23 70 37
88 13 18 36 59 51 91 25 54 31 60 112 104 47 25 100 62 116 80 43 49 97 59
172 34 96 -32 119 -34 174 -15 48 17 52 17 98 1 45 -16 59 -16 168 -3 108 12
124 17 177 51 73 46 177 93 225 101 22 4 64 -1 100 -10 73 -19 134 -21 164 -5
33 17 87 71 87 86 0 29 -32 73 -74 103 -70 50 -85 104 -40 145 17 16 56 30
122 46 53 12 113 26 133 30 20 5 49 23 66 43 24 26 42 35 80 41 62 9 74 16
128 74 29 31 57 51 77 55 46 9 98 62 98 100 0 24 -12 41 -55 81 -49 46 -55 56
-55 91 0 22 9 55 20 74 98 171 94 211 -20 229 -60 10 -80 29 -80 77 0 45 -31
79 -87 93 -25 7 -63 25 -83 41 -64 51 -86 54 -142 25 -76 -40 -125 -18 -173
75 -30 58 -116 63 -157 9 -62 -81 -89 -106 -130 -119 -64 -20 -110 -45 -157
-84 -28 -23 -53 -36 -72 -36 -29 0 -69 30 -69 51 0 32 -35 78 -80 104 -61 35
-75 66 -67 147 7 75 -11 117 -64 152 -21 14 -39 36 -43 52 -4 14 -22 46 -41
71 -47 61 -52 93 -24 150 l22 46 -36 34 c-46 42 -74 42 -129 0 -24 -18 -64
-40 -89 -50 -25 -10 -61 -28 -79 -42 -18 -13 -49 -30 -67 -36 -31 -10 -41 -7
-116 30 -45 22 -95 43 -112 47 -34 8 -190 87 -250 126 -22 15 -60 32 -85 38
-25 7 -59 20 -76 31 -17 10 -50 19 -72 19 -33 0 -45 -5 -59 -26 -10 -14 -37
-47 -60 -74 -23 -27 -45 -59 -49 -72 -15 -49 -56 -99 -108 -132 -104 -66 -109
-114 -17 -161 93 -46 102 -100 31 -170 -51 -50 -95 -146 -83 -182 17 -49 71
-82 169 -102 109 -23 122 -28 130 -53 15 -47 -22 -88 -79 -88 -80 0 -251 63
-288 105 -8 10 -25 40 -39 69 -37 76 -62 85 -170 58 -47 -12 -105 -24 -130
-28 -61 -9 -77 -18 -100 -63 -41 -80 -114 -113 -169 -75 -20 15 -23 22 -18 63
4 25 9 58 13 74 6 24 0 34 -43 77 -35 35 -58 50 -77 50 -40 0 -86 27 -127 73
-38 44 -50 46 -157 32 -35 -5 -73 -3 -107 5 -44 11 -63 11 -102 0 -69 -19 -86
-30 -127 -79 -44 -53 -153 -128 -216 -149 -25 -8 -64 -21 -87 -29 -48 -16
-113 -82 -113 -115 0 -12 21 -66 46 -120 38 -81 45 -105 40 -136 -21 -133 -20
-157 13 -246 35 -98 64 -157 83 -173 7 -6 40 -14 73 -18 66 -8 91 -24 111 -72
11 -24 12 -44 5 -75 -16 -72 15 -97 105 -84 24 3 64 9 89 12 39 6 50 3 80 -20
45 -35 84 -41 171 -27 83 13 137 1 159 -33 17 -25 16 -30 -25 -126 -15 -36
-32 -100 -38 -144 -11 -85 -28 -116 -82 -153 -39 -27 -89 -29 -150 -8 -23 8
-55 15 -70 15 -47 0 -110 -43 -139 -96 -33 -61 -108 -114 -161 -114 -20 0 -61
8 -91 19 -31 10 -73 22 -95 25 -64 11 -98 37 -119 92 -20 53 -96 158 -123 170
-10 4 -71 8 -137 9 -117 1 -122 2 -195 38 -41 20 -80 37 -87 37 -6 0 -36 21
-66 48 -30 26 -88 66 -130 89 -74 43 -75 43 -129 32 -52 -11 -58 -10 -100 15
-78 46 -89 40 -213 -116 -63 -80 -145 -148 -177 -148 -10 0 -45 -13 -78 -30
-39 -20 -74 -30 -103 -30 -71 0 -103 -16 -121 -61 -9 -21 -19 -39 -23 -40 -15
-1 -58 -9 -81 -14 -39 -9 -85 -123 -87 -216 -2 -87 -7 -99 -55 -131 -33 -22
-35 -27 -38 -86 l-3 -62 46 -20 c38 -16 50 -28 67 -67 25 -56 26 -130 3 -209
-15 -53 -33 -72 -93 -106 -29 -15 -31 -20 -35 -95 -3 -43 -8 -91 -12 -108 -5
-24 1 -41 29 -85 55 -86 68 -119 80 -210 14 -100 17 -105 59 -126 18 -9 46
-31 64 -50 58 -61 94 -48 240 90 99 93 132 106 168 66 10 -11 41 -31 70 -45
28 -13 58 -32 66 -41 9 -10 16 -51 19 -105 5 -75 10 -92 30 -114 27 -29 45
-31 86 -11 23 12 39 13 78 4 43 -9 51 -8 77 11 16 12 41 22 56 22 15 1 52 8
81 16 48 12 52 16 52 43 0 16 -5 51 -11 78 -19 92 36 162 128 162 54 0 89 -29
131 -109 27 -52 32 -72 32 -130 0 -81 12 -96 86 -110 58 -11 74 -4 104 44 16
26 32 37 63 45 23 6 68 19 100 30 55 18 62 18 100 4 23 -9 69 -25 102 -36 75
-26 105 -52 105 -91 0 -24 -13 -43 -60 -88 -46 -44 -61 -65 -66 -95 -3 -22
-27 -77 -53 -124 -38 -69 -56 -91 -96 -117 -70 -46 -92 -74 -105 -136 -17 -85
-35 -96 -150 -92 -52 2 -98 4 -102 4 -3 1 -16 17 -28 36 -12 20 -60 68 -106
107 l-85 71 -38 -12 c-43 -13 -81 -56 -100 -114 -14 -41 -67 -136 -101 -180
-39 -49 -95 -70 -170 -64 -36 3 -87 1 -115 -5 -27 -5 -90 -11 -138 -13 -120
-4 -131 -14 -122 -110 l6 -70 -36 -35 c-54 -51 -58 -68 -35 -163 37 -159 101
-257 159 -242 80 21 99 18 130 -15 29 -32 31 -33 83 -25 120 18 161 1 192 -81
15 -40 17 -66 12 -140 -4 -72 -2 -95 10 -112 20 -29 52 -28 94 3 41 30 81 32
105 5 14 -16 16 -28 10 -67 -14 -90 -15 -87 38 -93 57 -7 76 -24 84 -76 11
-75 41 -83 120 -29 66 44 93 51 131 31 47 -24 75 -20 100 14 41 55 66 65 190
70 134 6 132 5 157 117 19 83 47 123 88 123 32 0 47 -19 53 -67 9 -69 14 -83
34 -103 11 -11 33 -20 50 -20 74 0 119 -58 104 -135 -8 -43 -76 -105 -178
-160 -75 -42 -103 -82 -91 -136 7 -31 59 -87 118 -126 32 -22 41 -24 63 -14
37 16 79 14 115 -8 31 -19 32 -19 68 0 39 21 57 18 112 -18 l35 -23 57 19 c57
20 58 20 122 0 35 -11 81 -20 102 -22 37 -2 38 -1 67 61 46 98 94 98 169 2 26
-34 55 -60 65 -60 10 0 33 13 52 28 32 27 34 32 35 98 3 123 32 142 148 100
87 -31 101 -32 138 -5 36 25 54 82 45 143 -8 50 -27 69 -81 82 -51 12 -203 92
-219 116 -49 70 7 124 149 143 62 9 139 47 161 80 22 33 53 40 99 21 56 -24
69 -20 100 25 37 53 51 59 128 59 67 0 114 19 259 103 25 16 73 32 105 37 99
16 108 28 153 210 12 47 24 107 27 134 5 45 3 51 -30 85 -46 47 -53 78 -32
140 26 78 19 88 -87 130 -26 10 -28 15 -28 62 0 67 -18 89 -74 89 -37 0 -46
-6 -108 -71 l-69 -71 -77 6 c-127 12 -137 22 -78 74 25 22 48 32 88 36 120 15
128 18 183 62 30 24 67 47 83 50 44 9 99 -25 170 -104 66 -75 92 -129 92 -193
0 -22 17 -82 40 -137 81 -201 84 -254 21 -347 -67 -99 -223 -264 -273 -291
-26 -13 -55 -36 -64 -50 -16 -24 -16 -31 -1 -112 23 -120 21 -233 -7 -403 -32
-189 -48 -334 -53 -494 -4 -116 -2 -142 21 -232 21 -83 26 -126 26 -230 0 -75
9 -182 20 -258 31 -203 26 -302 -22 -475 -12 -43 -137 -254 -185 -313 -26 -32
-30 -69 -9 -87 11 -9 114 -11 418 -7 560 5 816 24 1373 102 117 16 316 56 447
89 51 13 136 34 188 46 52 12 176 49 275 81 99 33 209 68 245 80 183 58 691
313 865 435 207 144 285 201 315 227 194 167 362 333 518 512 109 125 155 160
227 170 46 7 92 -17 122 -62 22 -33 24 -135 3 -173 -56 -104 -497 -551 -700
-711 -74 -58 -187 -142 -250 -186 -125 -87 -394 -250 -450 -273 -19 -7 -57
-26 -85 -41 -176 -97 -439 -203 -715 -289 -69 -21 -138 -43 -153 -49 -15 -6
-134 -36 -264 -66 -130 -31 -239 -58 -243 -60 -4 -2 -33 -8 -66 -14 -32 -5
-113 -19 -179 -30 -396 -67 -734 -98 -1220 -112 -408 -12 -1208 0 -1455 21
-58 5 -181 14 -275 20 -288 17 -457 29 -535 40 -41 6 -156 17 -255 25 -99 9
-301 29 -450 45 -148 16 -358 39 -465 50 -107 11 -265 29 -350 40 -85 11 -227
27 -315 35 -88 9 -227 25 -310 36 -82 11 -222 26 -310 34 -201 17 -440 43
-525 55 -36 5 -195 21 -355 35 -159 14 -299 28 -310 30 -11 3 -92 10 -180 15
-88 5 -308 19 -490 30 -602 37 -1413 37 -1855 -1 -495 -42 -1036 -131 -1315
-217 -55 -17 -127 -38 -161 -46 -33 -9 -82 -25 -109 -37 -26 -11 -84 -31 -129
-44 -189 -53 -477 -175 -603 -255 -26 -17 -51 -30 -56 -30 -15 0 -249 -146
-279 -173 l-26 -24 -6 -569 c-3 -313 -10 -702 -14 -864 -8 -268 -11 -299 -29
-335 -28 -53 -50 -72 -100 -83 -43 -10 -128 -1 -176 19 -42 18 -85 111 -97
207 -5 42 -12 335 -15 650 -4 316 -9 580 -12 588 -8 22 -32 17 -82 -20 -62
-46 -275 -269 -331 -346 -34 -47 -72 -81 -151 -136 -71 -49 -121 -92 -153
-133 -26 -34 -51 -61 -55 -61 -5 0 -21 -19 -37 -42 -15 -24 -42 -59 -59 -78
-17 -19 -49 -60 -70 -90 -21 -30 -71 -96 -112 -147 -41 -51 -119 -160 -173
-241 -54 -81 -119 -174 -144 -207 -25 -33 -57 -81 -71 -107 -14 -26 -50 -75
-80 -109 -30 -33 -68 -89 -85 -122 -17 -34 -40 -75 -51 -92 -11 -16 -42 -64
-67 -106 -26 -41 -61 -93 -78 -115 -17 -21 -52 -78 -78 -126 -26 -48 -52 -91
-58 -94 -14 -9 -114 -165 -168 -264 -25 -45 -56 -98 -70 -118 -13 -20 -40 -67
-60 -104 -20 -37 -57 -94 -83 -125 -25 -32 -61 -78 -79 -103 -49 -65 -169
-147 -229 -155 -65 -9 -123 2 -191 36 -127 64 -152 173 -113 494 8 66 21 212
30 325 9 113 21 252 26 310 12 110 22 294 38 645 5 116 14 296 20 400 9 177
16 483 41 1805 6 289 15 658 21 820 14 349 6 2133 -10 2305 -6 61 -15 342 -21
625 -6 283 -18 625 -25 760 -8 135 -25 457 -38 716 -14 260 -27 477 -31 483
-4 5 -11 97 -17 203 -5 106 -14 254 -19 328 -5 74 -12 193 -16 263 -8 145 -18
163 -61 111 -26 -31 -93 -161 -93 -179 0 -7 -16 -34 -35 -61 -19 -27 -35 -53
-35 -57 0 -5 -16 -41 -36 -80 -20 -40 -42 -101 -50 -137 -30 -140 -73 -284
-92 -309 -25 -34 -72 -50 -150 -50 -87 -1 -153 28 -198 87 -105 138 -80 360
78 692 181 380 268 525 448 746 41 51 97 121 125 156 73 93 553 569 637 632
40 30 114 95 163 146 50 50 117 110 150 132 33 23 81 60 106 84 25 23 61 50
80 59 19 10 51 33 71 51 20 18 56 46 80 61 24 15 91 63 150 105 59 43 135 91
168 107 61 30 272 166 322 207 15 12 130 73 255 135 125 61 239 120 253 129
14 9 49 25 77 34 29 10 56 22 59 28 8 13 92 50 214 95 52 19 131 48 175 65 44
16 99 36 121 43 23 7 59 22 80 33 22 11 98 39 169 62 72 23 146 48 165 55 87
32 200 66 255 75 33 6 92 19 130 30 76 20 391 78 495 91 36 4 137 17 225 30
277 38 703 48 1095 24z m11773 -3299 c12 -8 40 -17 62 -21 22 -4 48 -13 57
-22 27 -24 32 -87 12 -164 -27 -103 -21 -112 103 -187 41 -25 93 -96 93 -128
0 -22 -51 -114 -73 -132 -13 -11 -17 -5 -27 37 -18 78 -61 128 -126 147 -30 9
-60 25 -69 37 -19 28 -19 88 0 134 24 58 12 88 -57 138 -82 61 -111 65 -193
24 -60 -29 -67 -31 -82 -16 -34 34 20 135 75 138 68 3 111 9 132 18 36 14 67
13 93 -3z m227 -824 c6 -50 9 -110 5 -132 -9 -55 -1 -74 47 -105 l42 -28 -28
-23 c-33 -29 -51 -30 -93 -4 -24 14 -34 29 -39 57 -4 21 -20 66 -35 100 -34
73 -37 125 -9 171 21 34 80 76 91 64 3 -4 12 -49 19 -100z m-4379 -31 c13 -10
42 -24 64 -31 22 -7 44 -16 49 -20 5 -5 -4 -27 -20 -49 -34 -48 -66 -53 -129
-21 -22 11 -40 20 -41 20 -1 0 -11 -16 -23 -35 -13 -23 -28 -35 -42 -35 -30 0
-59 28 -59 56 0 23 42 64 65 64 7 0 32 16 55 35 49 41 50 41 81 16z m4738
-116 c35 -18 44 -49 25 -86 -7 -15 -14 -38 -14 -50 0 -25 26 -59 46 -59 25 0
54 -51 54 -96 0 -73 -28 -183 -58 -227 -16 -23 -39 -63 -51 -90 -13 -26 -38
-59 -55 -72 -33 -25 -76 -34 -76 -15 0 5 25 40 55 77 34 43 57 81 60 103 3 19
13 61 21 92 13 52 13 60 -2 90 -9 18 -30 48 -47 66 -17 18 -38 51 -47 74 -11
30 -28 51 -58 71 -23 16 -42 35 -42 43 0 8 16 32 36 54 32 35 42 40 81 40 24
0 57 -7 72 -15z m-5519 -45 c8 -5 21 -31 30 -57 l15 -48 65 -3 c56 -3 69 -7
95 -32 17 -15 46 -35 65 -43 61 -25 75 -50 75 -133 0 -46 5 -78 13 -86 7 -7
44 -18 83 -24 48 -9 81 -21 107 -40 29 -22 50 -29 99 -32 71 -5 88 4 98 49 10
46 24 44 46 -6 24 -54 19 -91 -18 -135 -33 -40 -90 -41 -168 -3 -43 21 -59 25
-73 17 -27 -17 -25 -39 7 -72 28 -31 32 -32 109 -32 l81 0 30 -37 c17 -21 31
-42 31 -48 0 -21 62 -131 90 -160 40 -41 55 -84 34 -92 -31 -12 -41 -1 -144
161 -40 63 -62 76 -128 77 -26 0 -72 4 -102 8 -64 10 -139 -6 -171 -35 -12
-10 -30 -38 -40 -62 -44 -101 -94 -138 -177 -130 -74 8 -122 32 -122 62 0 36
29 48 102 40 63 -6 63 -5 125 40 77 56 92 85 100 185 l6 78 -51 52 c-53 54
-64 83 -59 151 2 35 2 35 -48 41 -64 7 -76 13 -100 52 -22 34 -37 37 -107 24
-31 -6 -41 -4 -59 14 -19 19 -21 28 -15 79 7 60 2 71 -40 84 -25 7 -55 -4
-104 -40 -41 -30 -106 -30 -124 -1 -25 40 40 87 156 111 47 10 91 22 99 27 18
11 70 11 89 -1z m1235 -80 c19 -7 36 -31 61 -84 32 -68 35 -80 29 -130 -4 -30
-13 -63 -21 -73 -13 -17 -15 -17 -29 1 -8 11 -15 36 -15 57 0 65 -11 96 -56
150 -51 62 -60 105 -19 95 13 -3 36 -11 50 -16z m-267 -169 c12 -35 12 -55 2
-114 -24 -141 -24 -151 4 -203 14 -27 26 -59 26 -72 0 -13 16 -48 35 -77 20
-29 42 -79 51 -111 25 -97 74 -158 173 -215 66 -38 170 -152 171 -186 0 -28
-31 -11 -47 25 -16 32 -32 44 -128 92 -80 40 -126 70 -167 111 -61 60 -66 72
-98 241 -14 73 -26 107 -45 129 -25 30 -25 32 -25 214 0 101 3 191 6 200 10
25 27 12 42 -34z m1906 -445 c42 -19 76 -41 76 -48 0 -7 -21 -34 -47 -60 -67
-68 -92 -66 -166 11 -32 33 -57 65 -57 71 0 6 11 22 25 35 34 35 78 32 169 -9z
m2894 -90 c26 -13 66 -47 90 -75 49 -58 67 -62 148 -32 65 25 93 13 109 -44
11 -36 16 -40 60 -51 27 -7 63 -20 80 -30 30 -16 33 -15 73 5 55 28 106 27
136 -2 20 -20 24 -37 30 -132 5 -61 9 -141 11 -180 1 -38 10 -87 19 -107 9
-21 16 -55 16 -76 0 -26 9 -53 26 -78 30 -44 32 -61 14 -126 -12 -42 -12 -51
3 -83 20 -42 22 -171 4 -225 -9 -26 -23 -40 -57 -57 -106 -51 -119 -63 -165
-156 -24 -48 -51 -112 -59 -142 -26 -89 -79 -119 -148 -84 -31 16 -73 8 -148
-29 -71 -35 -76 -40 -93 -87 -10 -27 -25 -56 -34 -62 -23 -18 -59 -16 -89 3
-38 25 -131 13 -238 -30 l-88 -36 -55 25 c-93 42 -132 28 -158 -57 -19 -67
-19 -81 4 -109 16 -20 27 -23 71 -21 45 2 54 -1 73 -24 12 -14 37 -44 56 -65
l34 -40 -23 -24 c-35 -37 -83 -34 -121 7 -16 18 -29 35 -29 39 0 12 -51 29
-87 29 -30 0 -46 9 -86 48 -28 26 -66 62 -85 80 -31 29 -34 37 -29 72 3 21 14
52 26 69 27 38 142 120 178 127 15 3 93 0 173 -5 145 -11 145 -11 193 14 59
30 75 31 134 4 51 -23 100 -20 125 9 9 9 25 38 36 64 11 25 31 53 44 61 20 14
90 31 212 52 55 9 126 83 155 161 34 91 68 134 128 160 69 31 82 65 53 149
-16 48 -18 65 -9 97 13 48 6 72 -37 125 -47 58 -53 78 -47 174 2 46 0 137 -5
202 -8 102 -12 120 -32 142 -33 35 -72 32 -130 -10 -57 -42 -82 -44 -109 -9
-17 21 -19 35 -14 93 l6 68 -39 6 c-22 4 -85 7 -140 7 -110 0 -236 25 -307 62
-46 23 -81 20 -151 -11 -39 -17 -49 -28 -74 -83 -37 -80 -115 -176 -159 -194
-26 -11 -43 -12 -74 -4 -27 8 -56 8 -95 1 -81 -15 -119 3 -147 69 l-21 50
-100 0 c-120 0 -164 11 -205 49 -51 48 -53 123 -5 181 25 30 27 30 110 28 l83
-3 37 38 c43 44 59 46 104 12 43 -32 111 -34 155 -5 23 15 47 20 98 20 80 0
107 -11 107 -46 0 -39 -37 -50 -117 -34 -62 12 -68 12 -78 -5 -34 -60 -77 -71
-115 -30 -30 32 -88 34 -115 5 -22 -24 -17 -91 12 -146 16 -31 28 -39 78 -55
49 -15 67 -16 100 -8 22 6 45 15 51 20 6 5 35 17 65 28 30 10 93 37 142 60 79
39 90 47 111 90 31 61 42 69 140 107 93 37 131 37 204 0z m-4021 -42 c7 -18
-31 -104 -46 -104 -11 0 -31 -54 -31 -84 0 -11 -11 -43 -24 -71 -13 -27 -29
-62 -35 -77 -12 -30 -35 -37 -45 -13 -7 18 38 166 64 211 9 17 23 47 29 67 23
70 73 110 88 71z m1821 -210 c49 -11 82 -26 82 -39 0 -45 -45 -75 -110 -75
-76 0 -110 62 -74 133 31 60 36 62 56 23 12 -24 28 -38 46 -42z m-260 -89 c5
-36 -51 -95 -131 -138 -32 -18 -84 -46 -115 -64 -31 -18 -77 -42 -102 -53 -25
-12 -53 -28 -62 -37 -16 -14 -222 -73 -255 -73 -22 0 -15 67 13 123 50 99 68
106 126 50 59 -57 82 -53 283 49 166 83 171 87 193 132 24 51 45 56 50 11z
m729 -20 c12 -34 -30 -59 -168 -99 -31 -9 -62 -23 -69 -31 -19 -23 -2 -73 40
-119 20 -23 53 -63 73 -89 33 -43 43 -67 61 -148 3 -14 29 -51 58 -82 47 -49
61 -58 118 -72 36 -9 82 -21 103 -26 42 -11 51 -41 18 -59 -49 -25 -244 0
-266 34 -8 12 -23 63 -35 113 -17 72 -27 97 -46 112 -63 49 -214 268 -214 308
0 23 33 54 112 107 89 59 201 86 215 51z m-3991 -190 c11 -27 9 -39 -13 -95
-32 -81 -39 -89 -130 -146 -63 -39 -78 -54 -94 -92 -22 -51 -73 -102 -101
-102 -10 0 -18 3 -18 6 0 20 66 126 87 139 51 34 92 167 60 194 -8 6 -22 29
-32 51 -15 32 -15 42 -5 55 19 23 36 18 79 -20 21 -19 45 -35 53 -35 8 0 22
18 32 41 15 34 22 40 44 37 18 -2 29 -12 38 -33z m1242 -23 c17 -16 34 -42 38
-57 9 -35 -6 -79 -29 -83 -38 -7 -110 110 -94 152 10 25 52 19 85 -12z m-404
-33 c39 -11 89 -26 111 -32 44 -13 52 -26 85 -131 19 -59 21 -82 15 -162 l-7
-93 46 -28 c59 -35 67 -62 36 -121 -30 -55 -58 -70 -100 -52 -60 25 -88 133
-58 217 11 30 10 39 -10 71 -12 20 -31 58 -43 83 -17 35 -32 51 -65 67 -24 12
-61 38 -84 58 -46 42 -61 41 -130 -5 -97 -64 -138 -31 -57 45 69 67 126 100
176 103 8 1 46 -8 85 -20z m2610 -28 c25 -10 105 -67 141 -101 34 -32 91 -148
78 -161 -8 -8 -31 8 -84 59 -41 38 -84 74 -96 81 -30 15 -84 14 -125 -3 -19
-8 -59 -18 -89 -22 -52 -6 -153 -46 -164 -64 -12 -19 -215 -90 -258 -90 -114
0 -68 73 73 115 14 4 46 18 72 31 26 13 58 24 70 24 25 0 33 4 146 72 42 26
89 51 102 57 32 13 102 14 134 2z m-3206 -217 c56 -39 13 -73 -128 -101 -72
-14 -172 -47 -197 -66 -15 -11 -56 -97 -89 -186 -25 -68 -52 -104 -95 -127
-38 -19 -64 1 -55 42 10 45 86 162 152 232 130 140 178 182 214 188 19 3 51
12 70 19 47 19 101 18 128 -1z m2529 -259 c44 -19 80 -19 113 0 39 22 91 18
134 -11 41 -28 79 -29 164 -3 37 12 46 11 71 -4 43 -25 116 -37 159 -25 47 13
141 1 149 -19 8 -20 -10 -30 -66 -38 -25 -4 -74 -18 -110 -31 -81 -31 -96 -30
-173 6 -34 16 -69 30 -75 30 -7 0 -40 -14 -73 -31 -59 -32 -59 -32 -86 -13
-88 62 -109 67 -140 33 -26 -29 -75 -49 -122 -49 -76 0 -100 -16 -133 -88 -36
-81 -55 -102 -118 -132 -61 -28 -81 -22 -81 25 0 77 54 149 119 160 50 8 95
53 111 109 23 83 80 113 157 81z m-398 -802 c5 -10 16 -47 25 -82 19 -76 62
-150 98 -170 23 -13 35 -13 104 3 121 27 188 49 203 67 62 76 70 81 114 75
128 -18 146 -18 190 -1 41 15 47 16 75 1 17 -9 49 -33 72 -55 47 -44 49 -64
19 -148 -18 -49 -38 -74 -132 -167 -106 -104 -110 -110 -115 -157 -4 -46 -6
-49 -34 -49 -43 0 -98 26 -99 47 -3 52 29 123 81 174 23 23 32 26 76 22 39 -4
54 -1 74 15 22 18 24 27 25 100 0 65 -4 84 -19 101 -24 27 -32 26 -68 -4 -38
-32 -75 -32 -109 1 -30 29 -85 45 -116 33 -14 -5 -28 -28 -43 -73 -31 -95 -63
-111 -164 -84 -39 10 -46 9 -71 -10 -38 -30 -78 -28 -104 4 -12 15 -21 33 -21
40 0 18 -32 34 -70 34 -34 0 -58 -21 -120 -105 -19 -26 -49 -64 -66 -85 -39
-48 -49 -111 -33 -212 13 -78 7 -630 -11 -1058 -7 -160 -6 -261 2 -349 13
-143 24 -164 140 -282 35 -36 70 -80 78 -98 13 -32 12 -35 -8 -52 -29 -23 -74
-11 -120 33 -42 41 -66 86 -91 174 -11 38 -27 89 -35 114 -8 25 -25 99 -37
165 -20 106 -22 147 -20 352 1 128 6 247 12 265 5 18 12 166 15 328 6 255 5
306 -10 380 -16 80 -16 89 -1 135 28 81 84 176 141 235 42 44 58 71 79 133 15
43 24 86 20 97 -11 34 -8 99 5 115 17 20 57 19 69 -2z m3244 -271 c25 -23 16
-61 -31 -132 -21 -31 -58 -102 -82 -156 -23 -54 -53 -122 -66 -151 -29 -68
-61 -89 -109 -73 -67 22 -86 81 -32 103 42 19 61 40 93 112 15 33 47 85 72
115 43 54 44 56 39 112 -5 54 -3 60 21 79 29 22 64 19 95 -9z m-803 -341 c52
-5 96 -10 98 -10 1 -1 22 -19 45 -41 24 -21 55 -44 69 -49 37 -14 50 -41 35
-72 -25 -49 -94 -29 -121 36 -8 19 -19 35 -23 35 -4 1 -46 3 -93 6 -47 3 -110
6 -140 7 l-55 2 3 -38 c6 -78 -31 -134 -141 -216 -70 -51 -84 -54 -160 -35
-62 15 -66 15 -104 -4 -49 -25 -64 -43 -72 -85 -6 -27 -12 -32 -39 -35 -18 -2
-55 4 -81 13 -58 19 -94 12 -121 -22 -22 -29 -26 -74 -9 -122 8 -24 8 -35 -1
-46 -23 -28 -51 -16 -108 46 l-57 61 -55 -5 c-72 -6 -98 5 -117 50 -8 21 -33
57 -54 82 -21 24 -39 48 -39 52 0 5 -14 16 -32 25 -24 12 -48 15 -96 11 -63
-5 -65 -4 -105 32 -37 33 -44 36 -97 34 -34 -2 -63 2 -74 10 -21 16 -34 76
-28 135 l4 43 22 -19 c36 -32 158 -94 215 -108 33 -9 72 -12 102 -8 43 6 54 3
96 -25 26 -17 66 -55 88 -83 22 -29 61 -74 87 -100 59 -59 89 -62 175 -17 71
37 131 46 182 29 58 -19 91 -4 121 55 14 27 37 57 51 68 25 18 30 18 108 3 45
-8 90 -13 99 -10 45 15 62 30 72 63 20 63 31 79 80 105 62 34 69 44 67 93 -2
57 16 76 67 69 23 -3 84 -10 136 -15z m-12963 -3608 l35 -16 -7 -61 c-3 -34
-8 -245 -11 -470 -6 -434 -5 -443 42 -487 13 -12 24 -28 24 -35 0 -33 -202
-63 -257 -37 -63 29 -66 38 -47 144 14 81 16 145 10 459 -3 201 -10 381 -14
400 -11 46 2 94 30 108 36 17 155 14 195 -5z m2288 -39 c87 -43 185 -126 235
-202 46 -69 70 -161 76 -287 5 -97 3 -120 -19 -192 -13 -45 -40 -106 -60 -135
-53 -80 -147 -148 -184 -134 -19 8 -16 49 5 77 31 40 43 89 49 194 6 116 -8
197 -57 325 -30 78 -40 92 -129 181 -77 77 -106 99 -146 113 -57 18 -115 51
-115 65 0 21 116 41 205 37 46 -3 80 -13 140 -42z m4454 25 c31 -19 33 -22 25
-57 -14 -66 -13 -323 2 -367 18 -51 17 -74 -1 -118 -22 -53 -21 -329 1 -428
l17 -72 -27 -24 c-23 -20 -38 -23 -107 -23 -72 0 -82 3 -104 25 -28 27 -30 43
-15 95 12 39 16 759 5 875 -3 39 -2 75 2 81 29 39 146 47 202 13z m3911 8 l35
-12 2 -185 c2 -102 3 -210 4 -240 0 -30 -2 -149 -6 -265 -6 -171 -4 -222 8
-275 19 -81 12 -95 -57 -111 -67 -15 -116 -6 -146 26 -19 20 -21 30 -15 62 13
67 17 822 5 886 -18 93 7 123 105 125 17 1 46 -5 65 -11z m-6435 -19 c67 -25
88 -53 88 -115 0 -36 -5 -50 -22 -64 -29 -24 -60 -12 -115 43 -23 22 -65 59
-93 81 -78 58 -72 75 29 76 35 1 77 -7 113 -21z m2845 8 c96 -34 166 -112 183
-204 11 -56 -28 -156 -77 -197 -92 -77 -88 -71 -73 -107 8 -18 35 -66 61 -107
26 -40 60 -108 76 -151 16 -42 47 -117 71 -165 39 -83 41 -90 28 -114 -11 -20
-24 -27 -53 -29 -51 -4 -89 12 -131 59 -43 48 -69 100 -135 267 -29 73 -67
155 -86 182 -48 70 -45 91 19 139 57 42 82 82 93 147 10 64 -10 113 -76 187
-33 38 -58 73 -54 78 17 29 96 36 154 15z m1990 -6 c139 -38 267 -149 331
-285 55 -118 63 -301 18 -445 -20 -63 -33 -84 -79 -132 -90 -93 -92 -90 -85
115 6 154 5 180 -14 250 -44 168 -130 305 -243 389 -93 68 -118 89 -118 97 0
4 24 12 53 18 28 5 54 11 57 11 3 1 39 -7 80 -18z m3467 -4 c27 -24 27 -24 15
-83 -8 -41 -12 -179 -12 -442 0 -322 3 -392 16 -438 16 -54 16 -56 -5 -76 -30
-31 -146 -37 -179 -10 l-23 18 -1 519 c0 426 2 520 13 527 8 5 44 9 81 9 56 0
71 -4 95 -24z m1708 5 c15 -18 18 -46 20 -228 4 -251 4 -208 1 -538 l-2 -270
-35 -17 c-44 -23 -110 -23 -138 0 -22 17 -22 21 -26 497 -2 264 -5 490 -5 503
-1 13 8 34 21 48 19 20 32 24 84 24 49 0 66 -4 80 -19z m497 -8 c43 -39 25
-128 -24 -116 -29 8 -78 48 -101 83 -14 22 -15 29 -5 38 31 25 100 22 130 -5z
m-3689 1 c54 -18 112 -74 128 -123 22 -66 4 -143 -58 -242 -25 -40 -11 -74 45
-105 138 -79 179 -184 132 -336 -17 -54 -29 -74 -79 -121 -67 -64 -93 -77
-157 -77 -37 0 -44 3 -44 19 0 11 5 23 10 26 6 4 23 30 37 58 24 46 27 64 28
147 0 79 -4 104 -24 147 -23 53 -89 123 -115 123 -7 0 -25 9 -40 21 -36 28
-34 63 8 109 32 36 56 105 56 164 0 12 -22 55 -50 95 -52 75 -59 96 -37 104
27 11 116 6 160 -9z m5412 -40 c26 -27 41 -83 31 -109 -14 -38 -99 4 -152 76
-33 45 -22 59 43 59 45 0 58 -4 78 -26z m-12655 -3 c0 -10 -7 -38 -15 -61 -19
-54 -19 -123 -1 -159 22 -41 179 -133 281 -164 64 -19 170 -79 213 -120 57
-54 86 -122 86 -197 -1 -90 -16 -127 -77 -192 -39 -40 -63 -57 -90 -62 -51
-10 -59 -1 -37 38 26 43 35 115 21 159 -20 59 -74 104 -198 163 -64 29 -123
54 -132 54 -20 0 -143 81 -190 124 -43 40 -59 79 -67 163 -11 118 12 164 122
250 37 28 84 31 84 4z m-2010 -18 c0 -9 -11 -31 -25 -48 -29 -39 -48 -86 -70
-175 -23 -91 -13 -186 35 -327 72 -209 173 -315 348 -362 43 -11 87 -21 98
-21 10 0 26 -5 34 -10 27 -17 -11 -41 -96 -61 -95 -23 -139 -23 -223 -4 -161
38 -299 146 -375 293 -18 34 -46 195 -46 261 0 120 20 203 67 283 52 88 67
104 147 152 65 39 106 47 106 19z m14148 -93 c-2 -86 11 -117 70 -165 38 -30
141 -86 197 -105 64 -22 168 -74 222 -112 80 -54 127 -173 104 -264 -15 -60
-55 -120 -94 -140 -48 -25 -59 -13 -51 55 4 36 2 72 -5 94 -18 54 -91 118
-184 161 -241 112 -286 137 -326 178 -43 44 -71 113 -71 173 0 89 67 205 119
205 19 0 21 -5 19 -80z m-7358 41 c0 -11 -4 -22 -9 -25 -12 -8 -39 -109 -50
-190 -8 -54 -7 -86 5 -145 9 -42 20 -96 24 -121 13 -72 107 -225 182 -297 18
-17 72 -50 121 -72 94 -44 106 -61 57 -86 -73 -38 -254 2 -359 79 -103 76
-153 145 -200 273 -21 55 -23 76 -19 200 4 131 5 142 36 208 37 79 66 113 137
161 57 39 75 42 75 15z m6074 -297 c19 -19 22 -104 4 -122 -18 -18 -46 -15
-79 9 -59 42 -61 90 -6 114 42 19 62 18 81 -1z m-10977 -386 c103 -119 163
-168 256 -211 20 -9 37 -21 37 -26 0 -19 -83 -33 -148 -27 -137 14 -243 82
-257 165 -9 54 2 97 28 116 32 23 54 18 84 -17z m12236 -85 c45 -43 89 -88 97
-101 14 -21 13 -25 -5 -38 -22 -17 -44 -14 -123 18 -41 16 -58 30 -77 63 -37
63 -31 135 13 135 7 0 50 -35 95 -77z m-15395 -25 c17 -17 15 -93 -3 -127 -23
-45 -65 -57 -149 -42 -84 14 -108 31 -80 55 147 123 198 148 232 114z m14262
-17 c16 -31 12 -76 -10 -104 -36 -46 -150 -45 -150 2 0 23 106 121 132 121 9
0 22 -9 28 -19z m-1760 -16 c15 -19 7 -82 -14 -103 -9 -10 -33 -14 -67 -13
-96 2 -99 39 -10 99 52 35 73 39 91 17z m-12576 -1079 c48 -20 51 -31 22 -81
-30 -50 -33 -81 -10 -114 14 -19 24 -22 63 -21 25 2 51 2 58 1 19 -2 34 -69
21 -97 -12 -25 -19 -27 -79 -24 -70 3 -101 -74 -56 -141 33 -49 63 -49 118 1
46 42 59 46 90 30 26 -14 26 -71 0 -94 -16 -14 -35 -17 -103 -15 -46 1 -113
-2 -150 -6 -74 -9 -123 4 -133 35 -3 9 0 71 6 136 6 69 8 168 4 236 -7 116 -7
117 19 143 29 29 77 33 130 11z m758 -22 c92 -46 113 -117 63 -216 -14 -27
-25 -58 -25 -69 0 -10 19 -64 42 -120 41 -98 41 -102 23 -116 -40 -28 -113 9
-140 72 -19 44 -79 110 -93 101 -7 -4 -12 -34 -12 -76 0 -57 -4 -73 -22 -95
-34 -38 -87 -44 -122 -13 l-28 24 12 129 c7 78 9 172 5 239 -6 104 -5 113 14
138 25 32 50 37 156 30 56 -3 94 -12 127 -28z m398 21 c29 -15 60 -61 60 -88
0 -8 9 -34 20 -58 11 -24 20 -56 20 -70 0 -29 82 -114 103 -106 7 3 11 20 9
47 -1 23 4 66 13 95 8 29 15 67 15 85 0 51 26 90 59 90 45 0 57 -23 43 -77 -7
-25 -24 -59 -37 -75 -14 -16 -28 -42 -31 -56 -3 -15 -12 -43 -21 -62 -24 -54
-43 -122 -43 -153 0 -34 -57 -97 -88 -97 -21 0 -82 62 -82 84 0 13 -42 114
-80 191 -41 85 -80 178 -80 195 0 23 48 70 72 70 10 0 32 -7 48 -15z m3068 -5
c17 -11 33 -28 33 -37 1 -10 1 -124 -1 -253 -2 -259 -2 -260 -65 -260 -66 0
-66 0 -68 265 -2 132 1 250 6 261 8 18 37 41 57 43 3 1 20 -8 38 -19z m-4637
-13 c27 -18 35 -30 37 -59 3 -39 -11 -78 -30 -78 -6 0 -28 16 -49 35 -58 52
-109 44 -109 -17 0 -30 38 -78 63 -78 25 0 137 -80 152 -110 18 -35 20 -140 3
-162 -7 -8 -38 -29 -69 -47 -50 -27 -65 -31 -135 -31 -88 0 -134 17 -167 61
-17 24 -18 30 -6 55 20 41 54 42 109 5 67 -46 110 -38 110 19 0 39 -26 68 -86
97 -64 30 -119 87 -133 138 -26 94 31 165 148 185 86 14 126 11 162 -13z
m2251 4 l24 -19 -1 -254 -1 -253 -25 -12 c-29 -14 -94 -3 -117 21 -13 13 -14
24 -4 80 9 44 10 119 6 235 -6 149 -5 173 10 195 20 32 72 35 108 7z m660 -8
c35 -34 38 -85 7 -107 -26 -18 -44 -12 -86 27 -28 26 -37 29 -75 24 -35 -4
-51 -14 -84 -50 -68 -75 -84 -179 -40 -265 13 -26 32 -55 43 -64 24 -22 97
-48 134 -48 50 0 32 -17 -36 -34 -76 -19 -120 -12 -190 28 -57 34 -89 83 -111
168 -14 57 -14 76 -4 115 17 70 70 163 103 183 32 20 175 45 203 36 11 -3 26
-1 34 4 28 18 73 11 102 -17z m353 6 c5 -5 10 -114 11 -256 2 -246 2 -246 -22
-270 -28 -28 -64 -30 -95 -4 -22 18 -23 22 -19 147 6 175 5 230 -5 292 -7 44
-5 55 11 73 34 38 90 46 119 18z m1784 -23 c18 -17 62 -70 97 -117 89 -120
128 -134 154 -53 9 25 9 48 0 89 -13 61 -7 90 19 105 13 6 25 4 41 -7 20 -14
22 -21 16 -67 -19 -148 -22 -211 -15 -249 12 -60 11 -145 -1 -168 -17 -31 -66
-25 -103 14 -49 50 -167 197 -167 207 0 15 -39 32 -58 26 -10 -3 -26 -21 -36
-40 -19 -36 -19 -57 0 -188 6 -45 5 -47 -21 -54 -48 -12 -58 10 -46 107 14
108 14 199 0 293 -13 88 -7 124 23 135 32 12 58 3 97 -33z m811 29 c34 -18 36
-28 15 -78 -12 -28 -15 -81 -15 -232 0 -182 -1 -196 -20 -215 -11 -11 -31 -20
-45 -20 -14 0 -34 9 -45 20 -19 19 -20 33 -20 224 0 186 -2 206 -19 227 l-19
24 -46 -22 c-41 -20 -47 -21 -61 -7 -8 9 -15 24 -15 33 0 32 26 44 78 37 29
-3 64 0 92 8 59 19 85 19 120 1z m1780 0 c35 -18 38 -44 10 -70 -26 -24 -26
-84 0 -135 24 -46 41 -50 75 -15 30 29 34 89 9 136 -8 17 -13 37 -10 45 5 14
52 19 80 8 24 -9 64 -68 71 -106 6 -30 1 -41 -30 -83 -44 -57 -43 -79 5 -184
48 -103 32 -144 -37 -101 -20 12 -50 50 -79 100 -26 44 -52 84 -57 87 -6 3
-19 -5 -29 -18 -17 -20 -19 -33 -13 -100 7 -72 6 -77 -16 -93 -28 -19 -69 -21
-93 -3 -16 12 -18 36 -18 254 -1 256 0 265 47 283 31 13 53 12 85 -5z m1227 7
c35 -22 41 -61 36 -221 -6 -172 0 -209 45 -262 25 -30 25 -32 8 -45 -27 -19
-103 -28 -131 -16 -14 6 -27 22 -29 34 -3 13 -7 123 -9 246 -4 221 -4 222 19
247 24 26 40 30 61 17z m2117 -23 c19 -18 19 -20 3 -54 -21 -44 -22 -104 -3
-150 20 -47 48 -46 97 4 33 33 39 45 39 83 0 24 -7 54 -16 66 -14 20 -14 23 0
28 21 8 78 -26 94 -57 18 -34 8 -84 -24 -122 -23 -28 -26 -37 -21 -82 3 -27
17 -76 30 -108 26 -61 25 -95 -1 -105 -19 -7 -53 33 -92 108 -36 71 -75 108
-97 94 -26 -16 -34 -63 -22 -126 6 -32 9 -64 5 -73 -15 -41 -100 -33 -116 11
-10 24 -12 435 -3 467 6 23 61 48 88 40 11 -3 29 -14 39 -24z m-4607 -2 c15
-15 16 -21 4 -50 -29 -71 -25 -133 9 -167 18 -18 21 -18 59 -3 47 18 71 7 71
-32 0 -35 -24 -48 -74 -41 -41 7 -46 5 -63 -21 -14 -21 -18 -44 -16 -109 2
-88 -2 -96 -50 -108 -39 -9 -84 16 -92 54 -4 16 -4 33 -2 38 9 13 10 293 2
364 -10 90 -1 102 77 96 37 -3 65 -11 75 -21z m-2496 5 c29 -3 90 -74 121
-140 27 -56 30 -71 26 -130 -10 -133 -72 -210 -177 -220 l-48 -4 39 78 c50
103 57 160 29 252 -16 53 -30 78 -56 101 -42 37 -54 38 -111 9 -32 -16 -47
-31 -60 -62 -21 -53 -29 -169 -15 -222 14 -52 85 -142 118 -150 43 -11 7 -29
-56 -27 -63 1 -104 17 -137 55 -39 42 -71 121 -78 190 -7 62 -5 72 24 132 32
69 77 113 131 131 25 9 192 13 250 7z m5878 -6 c10 -11 9 -25 -3 -61 -38 -110
2 -198 81 -183 11 2 24 20 33 46 13 38 13 49 -2 105 -15 57 -15 63 0 75 21 16
50 7 87 -29 26 -26 30 -36 29 -84 0 -89 -23 -109 -179 -152 -41 -11 -59 -53
-58 -133 0 -36 -3 -73 -8 -82 -12 -23 -81 -25 -99 -3 -10 12 -14 78 -16 250
-2 198 0 237 12 250 20 20 107 20 123 1z m2791 -1 c8 -9 10 -25 5 -42 -16 -64
-17 -131 -1 -162 9 -17 20 -31 25 -31 22 0 17 -32 -11 -67 -29 -37 -30 -41
-25 -115 3 -48 1 -80 -6 -87 -18 -18 -65 -13 -87 9 -18 18 -20 35 -22 213 -3
243 -2 256 18 279 21 22 86 24 104 3z m569 -11 c12 -15 21 -35 21 -46 0 -17
17 -66 55 -154 7 -17 31 -52 54 -78 46 -53 53 -94 26 -146 -15 -30 -46 -39
-70 -22 -23 15 -54 70 -74 127 -11 33 -42 110 -70 170 -28 61 -51 116 -51 123
0 56 72 73 109 26z m671 8 c21 -17 22 -22 12 -52 -18 -51 -14 -98 13 -151 l24
-49 -23 -47 c-33 -66 -40 -107 -26 -149 13 -39 8 -49 -31 -59 -17 -4 -32 0
-47 12 -22 18 -22 24 -24 251 -2 221 -1 235 17 248 26 19 58 18 85 -4z m611
-24 c17 -18 46 -55 64 -83 45 -69 111 -130 165 -153 25 -11 52 -27 59 -36 18
-22 26 -104 12 -138 -21 -54 -88 -30 -143 51 -60 88 -129 159 -170 175 -21 9
-43 14 -48 11 -18 -11 -42 46 -47 109 -5 58 -4 64 18 80 35 24 57 20 90 -16z
m778 23 c12 -8 15 -52 17 -240 1 -212 0 -232 -17 -247 -22 -20 -63 -12 -74 13
-11 27 -22 445 -13 466 9 19 62 23 87 8z m-8179 -11 c12 -8 11 -12 -6 -32 -12
-13 -34 -45 -50 -73 -25 -43 -29 -60 -28 -125 0 -96 26 -157 85 -200 76 -54
104 -38 123 74 9 53 20 84 32 93 47 34 114 -8 114 -72 0 -49 -34 -112 -73
-135 -27 -17 -51 -20 -152 -20 -110 0 -123 2 -156 24 -76 52 -118 156 -105
264 8 69 30 115 75 159 51 50 104 67 141 43z m1413 -111 c26 -52 54 -112 61
-134 8 -22 28 -72 45 -112 47 -110 38 -147 -36 -147 -41 0 -58 18 -74 78 -12
44 -58 96 -86 96 -33 0 -90 -48 -111 -92 -25 -54 -45 -72 -72 -63 -27 9 -26
46 4 98 13 23 26 58 30 77 4 19 19 51 35 70 21 27 29 49 33 97 4 37 15 78 29
102 42 76 76 60 142 -70z m3284 92 c11 -11 33 -55 49 -98 15 -43 38 -94 50
-113 13 -19 26 -48 30 -65 3 -16 18 -56 32 -88 29 -67 22 -102 -24 -113 -37
-9 -56 5 -74 56 -43 121 -170 144 -222 40 -33 -65 -71 -60 -43 6 8 20 15 45
15 56 0 23 35 95 60 123 11 13 19 43 22 86 7 84 27 117 79 128 3 0 14 -8 26
-18z m-1267 -6 c19 -23 106 -206 125 -263 9 -29 28 -73 42 -97 15 -28 23 -56
21 -77 -3 -30 -6 -33 -42 -36 -29 -3 -44 2 -62 19 -13 12 -24 27 -24 33 0 6
-16 35 -35 64 -34 50 -38 52 -79 52 -56 0 -98 -33 -115 -89 -13 -46 -28 -60
-38 -36 -10 27 17 152 38 179 27 34 49 90 49 122 0 40 21 101 42 124 22 23 60
26 78 5z m5554 -26 c29 -25 38 -42 52 -105 9 -42 14 -94 12 -117 -7 -62 -48
-140 -81 -156 -45 -21 -54 -3 -34 62 26 83 23 199 -8 265 -14 30 -25 60 -25
68 0 25 48 15 84 -17z m335 22 c7 -5 17 -30 22 -56 5 -26 14 -53 19 -60 6 -7
49 -31 95 -54 92 -45 115 -72 115 -136 0 -66 -46 -131 -79 -111 -5 3 -6 25 -4
48 6 56 -13 81 -115 148 -43 28 -84 60 -90 71 -22 35 -26 106 -8 134 18 27 24
29 45 16z m-629 -8 c0 -5 -9 -37 -21 -73 -26 -84 -25 -175 2 -259 18 -52 19
-65 8 -72 -21 -13 -26 -12 -68 27 -30 27 -42 47 -50 85 -14 62 -14 179 -1 213
16 43 130 112 130 79z"/>
<path d="M12285 24969 c-115 -4 -264 -15 -330 -23 -66 -8 -163 -20 -215 -26
-52 -6 -108 -15 -125 -21 -47 -14 -209 -48 -334 -70 -63 -11 -126 -26 -141
-34 -15 -8 -58 -23 -96 -34 -69 -20 -127 -39 -284 -91 -47 -15 -137 -51 -200
-79 -63 -29 -149 -66 -190 -82 -187 -76 -573 -262 -640 -309 -14 -10 -59 -34
-100 -54 -41 -21 -84 -45 -95 -55 -11 -10 -35 -26 -54 -36 -18 -9 -58 -35 -90
-56 -67 -48 -216 -150 -240 -164 -51 -31 -186 -137 -252 -197 -42 -38 -99 -86
-127 -106 -207 -150 -775 -705 -882 -862 -13 -19 -42 -55 -65 -80 -104 -115
-119 -158 -72 -208 40 -41 66 -112 77 -204 5 -45 16 -130 25 -188 18 -123 32
-301 45 -565 8 -177 16 -301 41 -660 21 -299 29 -438 39 -655 6 -124 15 -270
20 -325 19 -203 57 -1253 67 -1840 10 -575 10 -815 -1 -1315 -4 -223 -15 -785
-23 -1250 -28 -1612 -41 -2110 -62 -2390 -6 -80 -16 -238 -21 -352 -10 -208
-5 -265 22 -256 14 5 89 103 130 169 30 49 135 201 202 294 24 33 53 79 64
102 12 22 35 56 52 75 18 18 40 49 50 69 10 19 37 59 60 88 23 29 79 110 125
179 46 70 97 141 115 157 17 17 41 46 52 65 12 19 42 58 67 86 25 28 81 98
124 155 118 159 199 254 311 369 56 58 113 121 126 140 39 58 190 218 237 252
24 18 53 47 64 65 12 19 39 43 61 54 22 11 79 58 127 103 47 45 102 93 121
106 19 13 58 44 86 69 29 25 73 63 98 85 89 73 81 -20 78 960 -2 515 -8 889
-13 916 -17 77 -47 118 -108 146 -31 15 -69 36 -86 49 -16 12 -57 36 -90 53
-104 52 -185 176 -185 281 0 127 85 275 211 367 81 59 200 169 227 209 24 37
32 62 36 113 3 37 8 915 11 1951 l5 1885 22 45 c34 68 65 85 157 89 134 7 215
-44 245 -151 15 -54 20 -463 31 -2765 4 -709 6 -797 20 -818 9 -14 22 -27 30
-30 21 -8 171 52 240 96 33 21 87 51 120 67 33 16 101 53 152 81 50 29 96 52
101 52 6 0 54 29 107 65 54 36 102 65 108 65 12 0 319 168 392 215 28 17 94
52 147 77 53 26 130 69 170 96 116 79 182 120 219 137 19 8 55 30 80 48 26 17
97 64 158 102 380 239 840 549 939 632 26 22 67 52 92 68 25 15 64 45 87 66
24 22 47 39 53 39 5 0 42 29 81 65 39 36 99 86 132 112 34 26 112 93 172 149
61 56 152 140 203 187 93 86 193 192 281 297 25 30 69 80 97 111 29 30 68 80
87 110 19 30 44 63 56 73 12 11 31 36 43 55 12 20 60 95 107 167 100 152 177
294 207 379 12 33 31 76 42 95 12 19 28 67 37 105 9 39 29 99 45 135 15 36 33
97 39 135 7 39 21 103 32 143 19 67 20 96 16 320 -3 233 -5 255 -34 379 -74
318 -211 557 -457 797 -211 206 -318 278 -686 461 -14 7 -50 20 -80 30 -30 9
-84 30 -120 45 -36 16 -105 46 -155 68 -49 22 -115 45 -145 52 -30 7 -77 21
-104 32 -27 10 -83 27 -125 37 -42 11 -101 28 -132 39 -52 20 -124 34 -414 83
-204 35 -609 51 -950 38z"/>
<path d="M10842 16883 c-13 -10 -27 -36 -32 -58 -5 -22 -10 -186 -10 -365 0
-179 -5 -475 -10 -659 -4 -184 -5 -344 0 -356 14 -38 39 -38 114 -1 127 61
270 124 301 131 17 4 71 25 120 45 50 21 110 45 135 53 25 9 83 29 130 45 47
16 139 46 205 65 66 20 159 47 207 62 48 14 107 29 130 34 24 5 104 24 178 44
74 19 185 42 245 51 61 9 164 25 230 36 66 11 172 24 235 30 63 5 178 17 255
25 234 26 409 35 891 44 451 9 534 14 534 32 0 17 -139 48 -485 109 -316 56
-485 88 -585 110 -47 10 -143 30 -215 44 -71 14 -195 39 -275 56 -207 44 -477
100 -535 110 -45 8 -93 19 -350 76 -38 8 -129 26 -201 39 -72 13 -184 37 -250
53 -65 17 -149 33 -185 36 -36 4 -120 19 -186 36 -188 46 -390 82 -483 87 -73
4 -89 2 -108 -14z"/>
</g>
</svg>
