<?xml version="1.0" encoding="UTF-8"?>
<svg version="1.1" xmlns="http://www.w3.org/2000/svg" width="256" height="256">
<path d="M0 0 C1.13026108 0.00081573 1.13026108 0.00081573 2.28335571 0.00164795 C19.6922617 0.05944721 34.61586257 2.98735009 50.4375 10.375 C51.3670752 10.8078833 51.3670752 10.8078833 52.31542969 11.24951172 C79.43204502 24.16517935 100.81092117 47.58933177 111.32470703 75.75146484 C121.69406425 105.41074743 121.36026733 138.12135638 107.984375 166.82421875 C102.6610667 177.64637165 96.50853612 187.40975442 88.4375 196.375 C87.56480469 197.34695312 86.69210938 198.31890625 85.79296875 199.3203125 C65.96495051 220.16440781 37.39195465 233.96683638 8.5 234.7734375 C6.48544682 234.78847491 4.47252521 234.78511816 2.45800781 234.76611328 C0.43746519 234.74999972 -1.58107874 234.76609508 -3.6015625 234.78515625 C-36.92005428 234.83912271 -64.71058857 219.15348921 -87.78125 196.1640625 C-108.01742506 174.56274864 -118.6789977 143.45100253 -117.84375 114.078125 C-115.26173883 80.08164456 -102.41370475 50.22346134 -76.5625 27.375 C-54.39625608 9.11073071 -28.58754355 -0.07748256 0 0 Z " fill="#3E3E3E" transform="translate(127.5625,10.625)"/>
<path d="M0 0 C3.57988566 2.51611181 6.11637797 4.45360493 7.7578125 8.60546875 C8.35493801 14.93499917 7.01400906 19.6088666 3.24609375 24.61328125 C-2.87086575 31.84366484 -9.6524364 37.14132966 -17.8671875 41.79296875 C-19.3385781 42.64056176 -20.80993318 43.48821643 -22.28125 44.3359375 C-24.58166769 45.65987792 -26.88818726 46.96030173 -29.21484375 48.23828125 C-31.5122118 49.47699501 -31.5122118 49.47699501 -32.0546875 52.29296875 C-32.1475 53.43765625 -32.1475 53.43765625 -32.2421875 54.60546875 C-31.67765869 54.64285156 -31.11312988 54.68023437 -30.53149414 54.71875 C-23.07163186 55.3274139 -15.95240315 56.87987757 -8.6796875 58.60546875 C-7.49310547 58.87875 -6.30652344 59.15203125 -5.08398438 59.43359375 C3.62133625 61.4689925 3.62133625 61.4689925 4.7578125 62.60546875 C6.9557926 62.90801626 9.16261792 63.14656988 11.37109375 63.359375 C12.04850616 63.4248201 12.72591858 63.4902652 13.42385864 63.55769348 C15.63875761 63.76812766 17.85430991 63.96950655 20.0703125 64.16796875 C20.82023468 64.23550354 21.57015686 64.30303833 22.34280396 64.37261963 C50.38786021 67.6859811 50.38786021 67.6859811 75.7578125 57.60546875 C77.10880353 56.29003012 78.44986919 54.96371757 79.7578125 53.60546875 C80.4178125 53.60546875 81.0778125 53.60546875 81.7578125 53.60546875 C81.37480331 56.10851474 81.00768597 57.3562184 79.19140625 59.16796875 C71.18555185 64.93343728 64.31650887 68.75765435 54.30078125 68.7734375 C53.1916613 68.7784301 53.1916613 68.7784301 52.06013489 68.78352356 C50.48907084 68.78858875 48.91799603 68.79093201 47.34692383 68.79077148 C44.9921573 68.79292589 42.63788473 68.81099482 40.28320312 68.83007812 C32.07194323 68.86003989 24.29125003 68.38237455 16.16430664 67.07055664 C10.08437721 66.24046522 4.01079149 66.22414554 -2.1171875 66.23046875 C-4.07422607 66.22853516 -4.07422607 66.22853516 -6.07080078 66.2265625 C-15.83271556 66.33352907 -23.98362561 67.58226487 -33.2421875 70.60546875 C-33.2421875 75.22546875 -33.2421875 79.84546875 -33.2421875 84.60546875 C-33.9021875 84.60546875 -34.5621875 84.60546875 -35.2421875 84.60546875 C-35.2421875 80.97546875 -35.2421875 77.34546875 -35.2421875 73.60546875 C-35.9021875 73.60546875 -36.5621875 73.60546875 -37.2421875 73.60546875 C-37.50644531 74.19199219 -37.77070312 74.77851563 -38.04296875 75.3828125 C-39.28519464 77.68517906 -40.63850298 79.2702149 -42.4296875 81.16796875 C-46.11200304 85.23385882 -48.83293507 89.64001166 -51.56640625 94.3828125 C-53.48094675 96.92214478 -54.24400635 97.03425789 -57.2421875 97.60546875 C-57.23996689 96.74626831 -57.23774628 95.88706787 -57.23545837 95.00183105 C-57.21537162 86.88101301 -57.20017072 78.76020338 -57.19037533 70.63936615 C-57.18517005 66.46497024 -57.17811541 62.29059497 -57.16674805 58.11621094 C-57.15583517 54.0832143 -57.14989294 50.05023744 -57.14731026 46.01722717 C-57.14547109 44.48315622 -57.1418798 42.94908628 -57.13645744 41.4150238 C-57.078767 30.47134471 -57.078767 30.47134471 -58.2421875 19.60546875 C-58.9021875 21.91546875 -59.5621875 24.22546875 -60.2421875 26.60546875 C-61.2321875 26.60546875 -62.2221875 26.60546875 -63.2421875 26.60546875 C-62.92961518 19.26001914 -59.60467954 14.16056177 -54.60546875 8.875 C-40.7331276 -3.70388276 -16.82554813 -10.46467018 0 0 Z " fill="#575757" transform="translate(112.2421875,74.39453125)"/>
<path d="M0 0 C3.57988566 2.51611181 6.11637797 4.45360493 7.7578125 8.60546875 C8.35493801 14.93499917 7.01400906 19.6088666 3.24609375 24.61328125 C-2.87086575 31.84366484 -9.6524364 37.14132966 -17.8671875 41.79296875 C-19.3385781 42.64056176 -20.80993318 43.48821643 -22.28125 44.3359375 C-24.58166769 45.65987792 -26.88818726 46.96030173 -29.21484375 48.23828125 C-31.5122118 49.47699501 -31.5122118 49.47699501 -32.0546875 52.29296875 C-32.1475 53.43765625 -32.1475 53.43765625 -32.2421875 54.60546875 C-31.67765869 54.64285156 -31.11312988 54.68023437 -30.53149414 54.71875 C-23.07163186 55.3274139 -15.95240315 56.87987757 -8.6796875 58.60546875 C-7.49310547 58.87875 -6.30652344 59.15203125 -5.08398438 59.43359375 C3.62133625 61.4689925 3.62133625 61.4689925 4.7578125 62.60546875 C6.9557926 62.90801626 9.16261792 63.14656988 11.37109375 63.359375 C12.04850616 63.4248201 12.72591858 63.4902652 13.42385864 63.55769348 C15.63875761 63.76812766 17.85430991 63.96950655 20.0703125 64.16796875 C20.82023468 64.23550354 21.57015686 64.30303833 22.34280396 64.37261963 C50.38786021 67.6859811 50.38786021 67.6859811 75.7578125 57.60546875 C77.10880353 56.29003012 78.44986919 54.96371757 79.7578125 53.60546875 C80.4178125 53.60546875 81.0778125 53.60546875 81.7578125 53.60546875 C81.37480331 56.10851474 81.00768597 57.3562184 79.19140625 59.16796875 C71.18555185 64.93343728 64.31650887 68.75765435 54.30078125 68.7734375 C53.1916613 68.7784301 53.1916613 68.7784301 52.06013489 68.78352356 C50.48907084 68.78858875 48.91799603 68.79093201 47.34692383 68.79077148 C44.9921573 68.79292589 42.63788473 68.81099482 40.28320312 68.83007812 C32.07194323 68.86003989 24.29125003 68.38237455 16.16430664 67.07055664 C10.08437721 66.24046522 4.01079149 66.22414554 -2.1171875 66.23046875 C-4.07422607 66.22853516 -4.07422607 66.22853516 -6.07080078 66.2265625 C-15.83271556 66.33352907 -23.98362561 67.58226487 -33.2421875 70.60546875 C-33.2421875 75.22546875 -33.2421875 79.84546875 -33.2421875 84.60546875 C-33.9021875 84.60546875 -34.5621875 84.60546875 -35.2421875 84.60546875 C-35.2421875 80.97546875 -35.2421875 77.34546875 -35.2421875 73.60546875 C-35.9021875 73.60546875 -36.5621875 73.60546875 -37.2421875 73.60546875 C-37.50644531 74.19199219 -37.77070312 74.77851563 -38.04296875 75.3828125 C-39.28519464 77.68517906 -40.63850298 79.2702149 -42.4296875 81.16796875 C-46.11200304 85.23385882 -48.83293507 89.64001166 -51.56640625 94.3828125 C-53.48094675 96.92214478 -54.24400635 97.03425789 -57.2421875 97.60546875 C-57.23996689 96.74626831 -57.23774628 95.88706787 -57.23545837 95.00183105 C-57.21537162 86.88101301 -57.20017072 78.76020338 -57.19037533 70.63936615 C-57.18517005 66.46497024 -57.17811541 62.29059497 -57.16674805 58.11621094 C-57.15583517 54.0832143 -57.14989294 50.05023744 -57.14731026 46.01722717 C-57.14547109 44.48315622 -57.1418798 42.94908628 -57.13645744 41.4150238 C-57.078767 30.47134471 -57.078767 30.47134471 -58.2421875 19.60546875 C-58.9021875 21.91546875 -59.5621875 24.22546875 -60.2421875 26.60546875 C-61.2321875 26.60546875 -62.2221875 26.60546875 -63.2421875 26.60546875 C-62.92961518 19.26001914 -59.60467954 14.16056177 -54.60546875 8.875 C-40.7331276 -3.70388276 -16.82554813 -10.46467018 0 0 Z M-49.2421875 8.60546875 C-49.85835937 9.05664062 -50.47453125 9.5078125 -51.109375 9.97265625 C-52.90173546 11.43462768 -54.04380236 12.6258105 -55.2421875 14.60546875 C-55.32947473 16.63669927 -55.32947473 16.63669927 -54.91430664 18.85888672 C-54.02554566 25.82804167 -54.0109046 32.78426943 -53.92578125 39.80078125 C-53.90516252 41.2438103 -53.88416494 42.68683398 -53.86280823 44.12985229 C-53.80809465 47.89440512 -53.75846578 51.65900776 -53.70996094 55.42364502 C-53.65937113 59.27856787 -53.60388243 63.13342003 -53.54882812 66.98828125 C-53.44186868 74.52728357 -53.34029052 82.06634542 -53.2421875 89.60546875 C-50.71452688 87.11401455 -48.4782227 84.69161653 -46.4296875 81.79296875 C-44.31281734 78.82610213 -42.22343556 76.78180561 -39.3671875 74.54296875 C-36.25571334 71.6032095 -35.80076063 69.10913885 -35.66552734 64.86352539 C-35.37271995 58.65472664 -35.37271995 58.65472664 -38.2421875 53.60546875 C-37.70647321 50.06975446 -37.70647321 50.06975446 -36.2421875 48.60546875 C-36.15435208 46.38691611 -36.13524141 44.16558379 -36.14453125 41.9453125 C-36.1459462 41.2808461 -36.14736115 40.6163797 -36.14881897 39.93177795 C-36.15443232 37.80212976 -36.16698696 35.67258536 -36.1796875 33.54296875 C-36.18470079 32.10221506 -36.18926399 30.66145972 -36.19335938 29.22070312 C-36.20440605 25.68225773 -36.22167958 22.14387336 -36.2421875 18.60546875 C-34.9221875 18.60546875 -33.6021875 18.60546875 -32.2421875 18.60546875 C-32.2421875 27.51546875 -32.2421875 36.42546875 -32.2421875 45.60546875 C-27.05083148 43.91595112 -27.05083148 43.91595112 -22.47265625 41.50390625 C-21.81555664 41.10018799 -21.15845703 40.69646973 -20.48144531 40.28051758 C-19.4658252 39.63699341 -19.4658252 39.63699341 -18.4296875 38.98046875 C-17.72553711 38.53533936 -17.02138672 38.09020996 -16.29589844 37.6315918 C-8.27001126 32.46060622 -1.44327462 27.35773358 2.7578125 18.60546875 C3.0878125 17.94546875 3.4178125 17.28546875 3.7578125 16.60546875 C4.40713901 11.96742227 4.24680348 8.54722916 2.0703125 4.35546875 C-3.25738618 -1.06304297 -12.12332674 -3.65947643 -19.5546875 -3.83203125 C-30.93130643 -3.15310399 -40.55634684 1.37332527 -49.2421875 8.60546875 Z " fill="#D4D3D3" transform="translate(112.2421875,74.39453125)"/>
<path d="M0 0 C1.20849609 0.10248047 1.20849609 0.10248047 2.44140625 0.20703125 C3.64603516 0.29017578 3.64603516 0.29017578 4.875 0.375 C7.00390625 1.01953125 7.00390625 1.01953125 8.2890625 3.0703125 C8.52496094 3.71355469 8.76085937 4.35679688 9.00390625 5.01953125 C10.11765625 4.97828125 11.23140625 4.93703125 12.37890625 4.89453125 C16.00390625 5.01953125 16.00390625 5.01953125 18.00390625 7.01953125 C17.62890625 9.64453125 17.62890625 9.64453125 17.00390625 12.01953125 C15.68390625 12.34953125 14.36390625 12.67953125 13.00390625 13.01953125 C13.00390625 13.67953125 13.00390625 14.33953125 13.00390625 15.01953125 C12.400625 15.10589844 11.79734375 15.19226563 11.17578125 15.28125 C5.77939231 16.11098056 5.77939231 16.11098056 1.87890625 19.70703125 C1.26015625 20.47015625 0.64140625 21.23328125 0.00390625 22.01953125 C-3.74609375 21.83203125 -3.74609375 21.83203125 -6.99609375 21.01953125 C-6.99609375 21.67953125 -6.99609375 22.33953125 -6.99609375 23.01953125 C-5.90296875 23.12265625 -4.80984375 23.22578125 -3.68359375 23.33203125 C0.06790517 24.03146325 0.7022642 24.2794812 3.00390625 27.01953125 C5.10380277 28.19527836 5.10380277 28.19527836 7.00390625 29.01953125 C6.67390625 30.66953125 6.34390625 32.31953125 6.00390625 34.01953125 C6.99390625 34.01953125 7.98390625 34.01953125 9.00390625 34.01953125 C8.67390625 35.00953125 8.34390625 35.99953125 8.00390625 37.01953125 C5.52890625 37.51453125 5.52890625 37.51453125 3.00390625 38.01953125 C2.50890625 36.03953125 2.50890625 36.03953125 2.00390625 34.01953125 C-0.47109375 34.51453125 -0.47109375 34.51453125 -2.99609375 35.01953125 C-2.00609375 34.52453125 -2.00609375 34.52453125 -0.99609375 34.01953125 C-0.99609375 33.35953125 -0.99609375 32.69953125 -0.99609375 32.01953125 C-0.66609375 31.68953125 -0.33609375 31.35953125 0.00390625 31.01953125 C-0.65609375 30.42140625 -1.31609375 29.82328125 -1.99609375 29.20703125 C-3.99609375 27.01953125 -3.99609375 27.01953125 -3.99609375 24.01953125 C-5.64609375 24.34953125 -7.29609375 24.67953125 -8.99609375 25.01953125 C-8.99609375 24.35953125 -8.99609375 23.69953125 -8.99609375 23.01953125 C-10.64609375 22.68953125 -12.29609375 22.35953125 -13.99609375 22.01953125 C-13.99609375 22.67953125 -13.99609375 23.33953125 -13.99609375 24.01953125 C-12.34609375 24.67953125 -10.69609375 25.33953125 -8.99609375 26.01953125 C-9.98609375 28.49453125 -9.98609375 28.49453125 -10.99609375 31.01953125 C-13.96609375 30.68953125 -16.93609375 30.35953125 -19.99609375 30.01953125 C-19.99609375 29.35953125 -19.99609375 28.69953125 -19.99609375 28.01953125 C-20.65609375 28.01953125 -21.31609375 28.01953125 -21.99609375 28.01953125 C-21.99609375 28.67953125 -21.99609375 29.33953125 -21.99609375 30.01953125 C-23.31609375 30.01953125 -24.63609375 30.01953125 -25.99609375 30.01953125 C-25.99609375 29.35953125 -25.99609375 28.69953125 -25.99609375 28.01953125 C-27.31609375 28.34953125 -28.63609375 28.67953125 -29.99609375 29.01953125 C-31.04866916 25.04313527 -31.12002687 21.99652538 -29.99609375 18.01953125 C-28.43359375 16.08203125 -28.43359375 16.08203125 -25.99609375 15.01953125 C-23.22581139 15.08309413 -20.73992515 15.51649549 -17.99609375 16.01953125 C-17.66609375 17.00953125 -17.33609375 17.99953125 -16.99609375 19.01953125 C-16.39796875 18.68953125 -15.79984375 18.35953125 -15.18359375 18.01953125 C-12.99609375 17.01953125 -12.99609375 17.01953125 -9.99609375 17.01953125 C-9.99609375 15.69953125 -9.99609375 14.37953125 -9.99609375 13.01953125 C-10.80046875 12.87515625 -11.60484375 12.73078125 -12.43359375 12.58203125 C-14.99609375 12.01953125 -14.99609375 12.01953125 -15.99609375 11.01953125 C-16.18359375 8.58203125 -16.18359375 8.58203125 -15.99609375 6.01953125 C-15.33609375 5.35953125 -14.67609375 4.69953125 -13.99609375 4.01953125 C-11.37109375 4.39453125 -11.37109375 4.39453125 -8.99609375 5.01953125 C-8.99609375 5.67953125 -8.99609375 6.33953125 -8.99609375 7.01953125 C-7.01609375 6.68953125 -5.03609375 6.35953125 -2.99609375 6.01953125 C-3.01671875 5.21515625 -3.03734375 4.41078125 -3.05859375 3.58203125 C-2.97193639 0.02907961 -2.97193639 0.02907961 0 0 Z " fill="#373737" transform="translate(157.99609375,78.98046875)"/>
<path d="M0 0 C1.32 0 2.64 0 4 0 C4 9.24 4 18.48 4 28 C4.66 28 5.32 28 6 28 C5.34 30.64 4.68 33.28 4 36 C4.56452881 36.03738281 5.12905762 36.07476562 5.71069336 36.11328125 C13.17055564 36.72194515 20.28978435 38.27440882 27.5625 40 C28.74908203 40.27328125 29.93566406 40.5465625 31.15820312 40.828125 C39.86352375 42.86352375 39.86352375 42.86352375 41 44 C43.1979801 44.30254751 45.40480542 44.54110113 47.61328125 44.75390625 C48.29069366 44.81935135 48.96810608 44.88479645 49.66604614 44.95222473 C51.88094511 45.16265891 54.09649741 45.3640378 56.3125 45.5625 C57.06242218 45.63003479 57.81234436 45.69756958 58.58499146 45.76715088 C86.63004771 49.08051235 86.63004771 49.08051235 112 39 C113.35099103 37.68456137 114.69205669 36.35824882 116 35 C116.66 35 117.32 35 118 35 C117.61699081 37.50304599 117.24987347 38.75074965 115.43359375 40.5625 C107.42773935 46.32796853 100.55869637 50.1521856 90.54296875 50.16796875 C89.4338488 50.17296135 89.4338488 50.17296135 88.30232239 50.17805481 C86.73125834 50.18312 85.16018353 50.18546326 83.58911133 50.18530273 C81.2343448 50.18745714 78.88007223 50.20552607 76.52539062 50.22460938 C68.31803797 50.25450342 60.54676639 49.77375385 52.42407227 48.46069336 C46.25456935 47.63061478 40.09059916 47.67159519 33.875 47.6875 C32.60785156 47.67138672 31.34070313 47.65527344 30.03515625 47.63867188 C21.92870086 47.63449759 14.75290389 48.62010163 7 51 C7 50.34 7 49.68 7 49 C5.68 49 4.36 49 3 49 C2.67 45.7 2.34 42.4 2 39 C1.67 43.29 1.34 47.58 1 52 C0.67 52 0.34 52 0 52 C-0.04898438 50.94039062 -0.09796875 49.88078125 -0.1484375 48.7890625 C-0.22346709 47.40101503 -0.29901485 46.01299549 -0.375 44.625 C-0.4059375 43.92632812 -0.436875 43.22765625 -0.46875 42.5078125 C-0.59499498 38.29814173 -0.59499498 38.29814173 -3 35 C-2.46428571 31.46428571 -2.46428571 31.46428571 -1 30 C-0.84126045 27.78312006 -0.74866163 25.56144702 -0.68359375 23.33984375 C-0.66281265 22.67537735 -0.64203156 22.01091095 -0.62062073 21.3263092 C-0.55506342 19.19681457 -0.49621215 17.06719332 -0.4375 14.9375 C-0.39432061 13.49673153 -0.35070651 12.05597601 -0.30664062 10.61523438 C-0.19937607 7.0769596 -0.09812629 3.53854131 0 0 Z " fill="#CDCCCD" transform="translate(76,93)"/>
<path d="M0 0 C2.31 0.33 4.62 0.66 7 1 C7.33 3.31 7.66 5.62 8 8 C8.99 8 9.98 8 11 8 C10.67 9.32 10.34 10.64 10 12 C8.02 12 6.04 12 4 12 C4 12.99 4 13.98 4 15 C7.01267767 15.07006227 9.73040567 15.05642672 12.6875 14.4375 C15 14 15 14 18 15 C18.48468708 21.42210386 18.48468708 21.42210386 16.375 23.9375 C13.43969547 25.25066255 11.18136394 25.21691118 8 25 C8.66 26.98 9.32 28.96 10 31 C8.35 31 6.7 31 5 31 C4.67 31.66 4.34 32.32 4 33 C0.76902047 33.86159454 -1.22486274 34.30597523 -4.375 33.0625 C-5.179375 32.5365625 -5.179375 32.5365625 -6 32 C-5.67 30.35 -5.34 28.7 -5 27 C-6.98 27.33 -8.96 27.66 -11 28 C-11 27.34 -11 26.68 -11 26 C-11.66 26 -12.32 26 -13 26 C-13 32.6 -13 39.2 -13 46 C-14.98 46 -16.96 46 -19 46 C-18.67 45.34 -18.34 44.68 -18 44 C-17.84995027 42.6265365 -17.75161994 41.2471474 -17.68359375 39.8671875 C-17.64169922 39.06152344 -17.59980469 38.25585938 -17.55664062 37.42578125 C-17.51732422 36.58402344 -17.47800781 35.74226563 -17.4375 34.875 C-17.39431641 34.02550781 -17.35113281 33.17601562 -17.30664062 32.30078125 C-17.20045764 30.20071777 -17.09971503 28.10038052 -17 26 C-14.35261084 24.5393715 -13.10551666 24 -10 24 C-10 23.34 -10 22.68 -10 22 C-7.69 22 -5.38 22 -3 22 C-3 21.34 -3 20.68 -3 20 C-4.32 19.67 -5.64 19.34 -7 19 C-5.375 18.3125 -5.375 18.3125 -3 18 C0.25 19.4375 0.25 19.4375 3 21 C3 20.34 3 19.68 3 19 C2.01 18.67 1.02 18.34 0 18 C0.33 16.68 0.66 15.36 1 14 C-0.32 14 -1.64 14 -3 14 C-3 13.34 -3 12.68 -3 12 C-3.45375 12.495 -3.9075 12.99 -4.375 13.5 C-6 15 -6 15 -8 15 C-7.67 13.68 -7.34 12.36 -7 11 C-8.3921875 11.061875 -8.3921875 11.061875 -9.8125 11.125 C-13 11 -13 11 -16 9 C-16.3125 6.5 -16.3125 6.5 -16 4 C-14 2 -14 2 -10.7421875 1.8046875 C-9.46601563 1.82789062 -8.18984375 1.85109375 -6.875 1.875 C-4.95300781 1.90207031 -4.95300781 1.90207031 -2.9921875 1.9296875 C-1.51105469 1.96449219 -1.51105469 1.96449219 0 2 C0 1.34 0 0.68 0 0 Z " fill="#2C2C2C" transform="translate(176,95)"/>
<path d="M0 0 C0.66 -0.33 1.32 -0.66 2 -1 C2.33 0.65 2.66 2.3 3 4 C5.64 4.66 8.28 5.32 11 6 C10.67 7.32 10.34 8.64 10 10 C10.66 10 11.32 10 12 10 C12.33 9.01 12.66 8.02 13 7 C13.66 7 14.32 7 15 7 C15 7.66 15 8.32 15 9 C16.32 9 17.64 9 19 9 C19 10.32 19 11.64 19 13 C19.66 13.33 20.32 13.66 21 14 C21 14.66 21 15.32 21 16 C20.195625 15.835 19.39125 15.67 18.5625 15.5 C16.2715557 14.96808161 16.2715557 14.96808161 15 15 C15 15.66 15 16.32 15 17 C12.69 17 10.38 17 8 17 C8 17.66 8 18.32 8 19 C1.565 20.98 1.565 20.98 -5 23 C-5 23.99 -5 24.98 -5 26 C-8.13498292 27.85776765 -10.37471432 28.20140476 -14 28 C-14 25 -14 25 -13 23 C-15.97 23.33 -18.94 23.66 -22 24 C-22.33 22.68 -22.66 21.36 -23 20 C-24.32 20 -25.64 20 -27 20 C-27 18.68 -27 17.36 -27 16 C-25.68 16 -24.36 16 -23 16 C-22.67 15.01 -22.34 14.02 -22 13 C-21.236875 12.896875 -20.47375 12.79375 -19.6875 12.6875 C-16.82940576 11.95635961 -15.84257115 11.23048087 -14 9 C-13.01 9.33 -12.02 9.66 -11 10 C-10.67 8.35 -10.34 6.7 -10 5 C-11.32 4.34 -12.64 3.68 -14 3 C-14 2.34 -14 1.68 -14 1 C-12.35 1.33 -10.7 1.66 -9 2 C-9 2.66 -9 3.32 -9 4 C-7.35 3.67 -5.7 3.34 -4 3 C-3.01 4.98 -2.02 6.96 -1 9 C-0.34 9 0.32 9 1 9 C1 9.66 1 10.32 1 11 C0.34 11 -0.32 11 -1 11 C-0.67 11.66 -0.34 12.32 0 13 C0.66 13 1.32 13 2 13 C2.33 14.32 2.66 15.64 3 17 C6.72614153 15.88145414 6.72614153 15.88145414 9 13 C8.01 13 7.02 13 6 13 C6.33 11.35 6.66 9.7 7 8 C6.0925 7.731875 5.185 7.46375 4.25 7.1875 C1.24164622 6.08829381 -0.50358617 4.91391727 -3 3 C-5.14733927 2.29485154 -5.14733927 2.29485154 -7 2 C-7 1.34 -7 0.68 -7 0 C-3.7807732 -1.0730756 -3.09793558 -0.79946725 0 0 Z " fill="#3B3B3B" transform="translate(158,100)"/>
<path d="M0 0 C0.33 0 0.66 0 1 0 C2.51376503 9.24763089 3.32020832 18.25165309 3.4140625 27.6171875 C3.43342865 28.84035675 3.4527948 30.063526 3.4727478 31.32376099 C3.53182364 35.17410634 3.57863732 39.02448279 3.625 42.875 C3.66324621 45.50912656 3.70230163 48.14324151 3.7421875 50.77734375 C3.83746458 57.18479156 3.92271544 63.59231122 4 70 C4.47789474 69.30975739 4.95578949 68.61951477 5.44816589 67.90835571 C6.07652847 67.00483368 6.70489105 66.10131165 7.35229492 65.17041016 C7.97456467 64.27391754 8.59683441 63.37742493 9.23796082 62.45376587 C11.08892267 59.8761688 13.03919433 57.58908127 15.3125 55.375 C15.96863281 54.72273438 16.62476562 54.07046875 17.30078125 53.3984375 C19 52 19 52 21 52 C21 47.71 21 43.42 21 39 C21.99 38.505 21.99 38.505 23 38 C23 41.63 23 45.26 23 49 C24.32 49 25.64 49 27 49 C27 49.66 27 50.32 27 51 C25.02 51.495 25.02 51.495 23 52 C23 56.62 23 61.24 23 66 C22.34 66 21.68 66 21 66 C21 62.37 21 58.74 21 55 C20.34 55 19.68 55 19 55 C18.73574219 55.58652344 18.47148438 56.17304688 18.19921875 56.77734375 C16.95699286 59.07971031 15.60368452 60.66474615 13.8125 62.5625 C10.13018446 66.62839007 7.40925243 71.03454291 4.67578125 75.77734375 C3 78 3 78 -1 79 C-0.67 52.93 -0.34 26.86 0 0 Z " fill="#E7E6E7" transform="translate(56,93)"/>
<path d="M0 0 C1.69141656 0.08963062 3.37959602 0.24577676 5.0625 0.4375 C6.44115234 0.59025391 6.44115234 0.59025391 7.84765625 0.74609375 C8.55792969 0.82988281 9.26820313 0.91367188 10 1 C10.66 2.65 11.32 4.3 12 6 C13.093125 5.773125 14.18625 5.54625 15.3125 5.3125 C19 5 19 5 20.9375 6.0625 C22.41793945 8.76212488 22.20161999 10.97570019 22 14 C21.34 14.33 20.68 14.66 20 15 C21.32 15.66 22.64 16.32 24 17 C23.67 17.66 23.34 18.32 23 19 C22.01 18.67 21.02 18.34 20 18 C20 18.66 20 19.32 20 20 C15.93638892 21.04867383 12.14852827 21.04937219 7.98828125 20.9375 C5.92404786 20.86343811 5.92404786 20.86343811 4 22 C4.7109375 20.046875 4.7109375 20.046875 6 18 C8.1640625 17.390625 8.1640625 17.390625 10.625 17.25 C11.44226563 17.19328125 12.25953125 17.1365625 13.1015625 17.078125 C13.72804687 17.05234375 14.35453125 17.0265625 15 17 C15 16.34 15 15.68 15 15 C16.32 14.34 17.64 13.68 19 13 C18.505 10.525 18.505 10.525 18 8 C15.69 8 13.38 8 11 8 C10.34 6.35 9.68 4.7 9 3 C8.443125 3.185625 7.88625 3.37125 7.3125 3.5625 C4.600867 4.07551165 2.65628961 3.6640724 0 3 C-0.33 4.65 -0.66 6.3 -1 8 C-0.34 8.33 0.32 8.66 1 9 C-1.64 9 -4.28 9 -7 9 C-7.33 8.34 -7.66 7.68 -8 7 C-9.65 7.33 -11.3 7.66 -13 8 C-13 9.65 -13 11.3 -13 13 C-11.35 13.66 -9.7 14.32 -8 15 C-8 16.32 -8 17.64 -8 19 C-10.64738916 20.4606285 -11.89448334 21 -15 21 C-15.33 20.34 -15.66 19.68 -16 19 C-21.44582633 17.64655475 -21.44582633 17.64655475 -26.5 19.375 C-28.68723484 23.20266097 -28.3314897 26.69063394 -28 31 C-26.68 30.67 -25.36 30.34 -24 30 C-24 30.66 -24 31.32 -24 32 C-22.68 32.33 -21.36 32.66 -20 33 C-23.81489674 34.46726798 -26.29011622 33.43336419 -30 32 C-30.144375 31.113125 -30.28875 30.22625 -30.4375 29.3125 C-30.91019978 26.52882354 -31.43070185 23.76516243 -32 21 C-31.34 21 -30.68 21 -30 21 C-29.67 20.01 -29.34 19.02 -29 18 C-26.9375 17.3125 -26.9375 17.3125 -25 17 C-25 16.34 -25 15.68 -25 15 C-20.28596212 15.47939368 -16.33420699 15.96834048 -12 18 C-12.66 17.29875 -13.32 16.5975 -14 15.875 C-16.33463357 12.51896425 -16.69583813 11.00106924 -16 7 C-14.5625 5.0625 -14.5625 5.0625 -12 4 C-8.94756045 4.06304522 -6.00331061 4.46736158 -3 5 C-2.690625 4.360625 -2.38125 3.72125 -2.0625 3.0625 C-1 1 -1 1 0 0 Z " fill="#838383" transform="translate(156,77)"/>
<path d="M0 0 C0.66 0 1.32 0 2 0 C1.61699081 2.50304599 1.24987347 3.75074965 -0.56640625 5.5625 C-11.83809067 13.67987743 -20.524771 15.23328209 -34.25 15.25 C-35.04110168 15.25200409 -35.83220337 15.25400818 -36.64727783 15.256073 C-47.26356927 15.26266062 -57.56052615 14.77534712 -68.06958008 13.14428711 C-77.68035461 11.65499404 -87.28894433 11.29063015 -97 11 C-97 10.67 -97 10.34 -97 10 C-83.96505025 8.84288681 -71.37080971 9.11474918 -58.375 10.4375 C-29.8565917 14.15933756 -29.8565917 14.15933756 -4 4 C-2.64900897 2.68456137 -1.30794331 1.35824882 0 0 Z " fill="#D2D2D2" transform="translate(192,128)"/>
<path d="M0 0 C0.66 -0.33 1.32 -0.66 2 -1 C2.33 0.65 2.66 2.3 3 4 C5.64 4.66 8.28 5.32 11 6 C10.67 7.32 10.34 8.64 10 10 C10.66 10 11.32 10 12 10 C12.33 9.01 12.66 8.02 13 7 C13.66 7 14.32 7 15 7 C15 7.66 15 8.32 15 9 C16.32 9 17.64 9 19 9 C19 10.32 19 11.64 19 13 C19.66 13.33 20.32 13.66 21 14 C21 14.66 21 15.32 21 16 C20.195625 15.835 19.39125 15.67 18.5625 15.5 C16.2715557 14.96808161 16.2715557 14.96808161 15 15 C15 15.66 15 16.32 15 17 C12.69 17 10.38 17 8 17 C8 17.66 8 18.32 8 19 C6.02 19.33 4.04 19.66 2 20 C1.67 18.35 1.34 16.7 1 15 C-0.65 15.66 -2.3 16.32 -4 17 C-4.33 16.01 -4.66 15.02 -5 14 C-5.66 13.34 -6.32 12.68 -7 12 C-5.68 11.34 -4.36 10.68 -3 10 C-5.64 9.67 -8.28 9.34 -11 9 C-10.67 7.68 -10.34 6.36 -10 5 C-11.32 4.34 -12.64 3.68 -14 3 C-14 2.34 -14 1.68 -14 1 C-11.525 1.495 -11.525 1.495 -9 2 C-9 2.66 -9 3.32 -9 4 C-7.35 3.67 -5.7 3.34 -4 3 C-3.01 4.98 -2.02 6.96 -1 9 C-0.34 9 0.32 9 1 9 C1 9.66 1 10.32 1 11 C0.34 11 -0.32 11 -1 11 C-0.67 11.66 -0.34 12.32 0 13 C0.66 13 1.32 13 2 13 C2.33 14.32 2.66 15.64 3 17 C6.72614153 15.88145414 6.72614153 15.88145414 9 13 C8.01 13 7.02 13 6 13 C6.33 11.35 6.66 9.7 7 8 C6.0925 7.731875 5.185 7.46375 4.25 7.1875 C1.24164622 6.08829381 -0.50358617 4.91391727 -3 3 C-5.14733927 2.29485154 -5.14733927 2.29485154 -7 2 C-7 1.34 -7 0.68 -7 0 C-3.7807732 -1.0730756 -3.09793558 -0.79946725 0 0 Z " fill="#5C5C5C" transform="translate(158,100)"/>
<path d="M0 0 C0.66 0 1.32 0 2 0 C2 0.66 2 1.32 2 2 C3.32 1.67 4.64 1.34 6 1 C6.33 1.66 6.66 2.32 7 3 C5.75 5 5.75 5 4 7 C2.68 7 1.36 7 0 7 C-0.33 7.66 -0.66 8.32 -1 9 C-2.32 9 -3.64 9 -5 9 C-5 10.32 -5 11.64 -5 13 C-3.68 13 -2.36 13 -1 13 C-0.67 14.32 -0.34 15.64 0 17 C1.98 17 3.96 17 6 17 C6.33 16.34 6.66 15.68 7 15 C7.66 15.33 8.32 15.66 9 16 C8.67 17.32 8.34 18.64 8 20 C11.465 19.505 11.465 19.505 15 19 C15 18.01 15 17.02 15 16 C17.97 15.01 20.94 14.02 24 13 C23.91332169 16.12639695 23.80649067 19.24981121 23.6875 22.375 C23.66494141 23.26445312 23.64238281 24.15390625 23.61914062 25.0703125 C23.58369141 25.92109375 23.54824219 26.771875 23.51171875 27.6484375 C23.48553467 28.43395996 23.45935059 29.21948242 23.43237305 30.02880859 C23 32 23 32 20 34 C20.33 28.06 20.66 22.12 21 16 C18.7763932 17.9254644 18.7763932 17.9254644 18 21 C15.59454362 22.20272819 14.05003047 22.10071472 11.375 22.0625 C10.14910156 22.04896484 10.14910156 22.04896484 8.8984375 22.03515625 C8.27195313 22.02355469 7.64546875 22.01195312 7 22 C6.67 20.68 6.34 19.36 6 18 C3.69 18.33 1.38 18.66 -1 19 C-1 18.34 -1 17.68 -1 17 C-1.66 17 -2.32 17 -3 17 C-3 16.34 -3 15.68 -3 15 C-4.32 14.67 -5.64 14.34 -7 14 C-7 12.02 -7 10.04 -7 8 C-5.35 7.67 -3.7 7.34 -2 7 C-2 6.34 -2 5.68 -2 5 C-0.02 4.67 1.96 4.34 4 4 C2.68 3.34 1.36 2.68 0 2 C0 1.34 0 0.68 0 0 Z " fill="#797979" transform="translate(136,107)"/>
<path d="M0 0 C2.32502881 2.32502881 2.3671045 2.94658265 2.5 6.125 C2.36230515 11.8531059 -0.23325149 14.9137505 -4 19 C-4.495 19.58523437 -4.99 20.17046875 -5.5 20.7734375 C-10.71412196 26.53504226 -17.33939338 30.13410982 -24 34 C-24.89074219 34.556875 -25.78148438 35.11375 -26.69921875 35.6875 C-27.47910156 36.161875 -28.25898437 36.63625 -29.0625 37.125 C-29.73410156 37.54007813 -30.40570313 37.95515625 -31.09765625 38.3828125 C-33 39 -33 39 -35.11889648 38.03857422 C-36.05004272 37.52447998 -36.05004272 37.52447998 -37 37 C-36.50709473 36.73896484 -36.01418945 36.47792969 -35.50634766 36.20898438 C-14.13351763 25.25219584 -14.13351763 25.25219584 -1 6 C-0.60235737 4.01178687 -0.24544834 2.01267638 0 0 Z " fill="#DFDFDF" transform="translate(117,83)"/>
<path d="M0 0 C9.41030923 1.34886389 18.69503742 3.06950984 28 5 C28 5.33 28 5.66 28 6 C27.15179688 6.02578125 26.30359375 6.0515625 25.4296875 6.078125 C16.3463025 6.51732164 8.66210658 8.16967642 0 11 C0 7.37 0 3.74 0 0 Z " fill="#595959" transform="translate(80,131)"/>
<path d="M0 0 C2.7476868 2.08158091 4.31809816 3.82457878 5.5625 7.0625 C5.6402346 9.39453812 5.65217728 11.73089059 5.5625 14.0625 C5.2325 14.0625 4.9025 14.0625 4.5625 14.0625 C4.2325 12.4125 3.9025 10.7625 3.5625 9.0625 C2.9025 10.3825 2.2425 11.7025 1.5625 13.0625 C1.47613281 12.45921875 1.38976562 11.8559375 1.30078125 11.234375 C0.63342705 7.43841535 0.13318722 4.74364281 -2.375 1.75 C-11.70883007 -3.39313085 -20.3346719 -5.46407243 -30.8125 -3.0625 C-34.26115185 -2.11470421 -34.26115185 -2.11470421 -36.5625 -0.8125 C-39.20792093 0.42202977 -41.56170987 0.19321773 -44.4375 0.0625 C-34.79097438 -11.04656338 -10.60972829 -7.45701544 0 0 Z " fill="#D2D0D1" transform="translate(114.4375,75.9375)"/>
<path d="M0 0 C0.66 0 1.32 0 2 0 C2 2.31 2 4.62 2 7 C3.65 7.66 5.3 8.32 7 9 C7 10.32 7 11.64 7 13 C4.35261084 14.4606285 3.10551666 15 0 15 C-0.33 14.34 -0.66 13.68 -1 13 C-6.44582633 11.64655475 -6.44582633 11.64655475 -11.5 13.375 C-13.68723484 17.20266097 -13.3314897 20.69063394 -13 25 C-11.68 24.67 -10.36 24.34 -9 24 C-9 24.66 -9 25.32 -9 26 C-7.68 26.33 -6.36 26.66 -5 27 C-8.81489674 28.46726798 -11.29011622 27.43336419 -15 26 C-15.144375 25.113125 -15.28875 24.22625 -15.4375 23.3125 C-15.91019978 20.52882354 -16.43070185 17.76516243 -17 15 C-16.34 15 -15.68 15 -15 15 C-14.67 14.01 -14.34 13.02 -14 12 C-11.9375 11.3125 -11.9375 11.3125 -10 11 C-10 10.34 -10 9.68 -10 9 C-5.28596212 9.47939368 -1.33420699 9.96834048 3 12 C2.34 11.29875 1.68 10.5975 1 9.875 C-1.30871428 6.55622323 -1.44926708 4.95355026 -1 1 C-0.67 0.67 -0.34 0.34 0 0 Z " fill="#8B8B8B" transform="translate(141,83)"/>
<path d="M0 0 C0 0.99 0 1.98 0 3 C-1.65 3.66 -3.3 4.32 -5 5 C-4.67 5.99 -4.34 6.98 -4 8 C-5.1875 9.5625 -5.1875 9.5625 -7 11 C-9.6875 10.6875 -9.6875 10.6875 -12 10 C-12 10.66 -12 11.32 -12 12 C-15.125 13.25 -15.125 13.25 -19 14 C-22.4375 12.3125 -22.4375 12.3125 -25 10 C-25 9.01 -25 8.02 -25 7 C-26.32 7.33 -27.64 7.66 -29 8 C-29 12.29 -29 16.58 -29 21 C-27.02 21.66 -25.04 22.32 -23 23 C-23 23.33 -23 23.66 -23 24 C-25.31 24 -27.62 24 -30 24 C-31.50938632 20.98122735 -31.14366437 17.86920415 -31.125 14.5625 C-31.12886719 13.88123047 -31.13273438 13.19996094 -31.13671875 12.49804688 C-31.1306374 9.39351954 -30.98890312 6.96670935 -30 4 C-29.34 4 -28.68 4 -28 4 C-28 4.66 -28 5.32 -28 6 C-26.02 5.67 -24.04 5.34 -22 5 C-22.33 6.65 -22.66 8.3 -23 10 C-19.7 10.33 -16.4 10.66 -13 11 C-12.67 10.01 -12.34 9.02 -12 8 C-9.525 8.495 -9.525 8.495 -7 9 C-7.66 8.01 -8.32 7.02 -9 6 C-9 5.01 -9 4.02 -9 3 C-8.43410156 2.86722656 -7.86820313 2.73445313 -7.28515625 2.59765625 C-6.55167969 2.42105469 -5.81820312 2.24445313 -5.0625 2.0625 C-4.33160156 1.88847656 -3.60070312 1.71445313 -2.84765625 1.53515625 C-1.00030102 1.16112431 -1.00030102 1.16112431 0 0 Z " fill="#717171" transform="translate(193,117)"/>
<path d="M0 0 C0.33 0 0.66 0 1 0 C1.33 19.14 1.66 38.28 2 58 C2.66 58 3.32 58 4 58 C3.505 60.475 3.505 60.475 3 63 C1.02 63.495 1.02 63.495 -1 64 C-0.67 42.88 -0.34 21.76 0 0 Z " fill="#DCDBDB" transform="translate(56,108)"/>
<path d="M0 0 C-1.98 0.99 -1.98 0.99 -4 2 C-2.68 2.66 -1.36 3.32 0 4 C-0.57331055 4.01458252 -1.14662109 4.02916504 -1.73730469 4.04418945 C-17.59603784 4.48085429 -17.59603784 4.48085429 -33 8 C-33 7.34 -33 6.68 -33 6 C-33.66 5.67 -34.32 5.34 -35 5 C-26.87464322 2.09808686 -19.43352732 0.51187259 -10.80078125 0.17578125 C-1.94297782 -0.38014784 -1.94297782 -0.38014784 0 0 Z " fill="#B0B1B0" transform="translate(116,136)"/>
<path d="M0 0 C3.79918838 0.51340384 5.43134786 1.2079868 8 4 C10.09989652 5.17574711 10.09989652 5.17574711 12 6 C11.67 7.65 11.34 9.3 11 11 C11.99 11 12.98 11 14 11 C13.67 11.99 13.34 12.98 13 14 C11.35 14.33 9.7 14.66 8 15 C7.67 13.68 7.34 12.36 7 11 C5.35 11.33 3.7 11.66 2 12 C2.66 11.67 3.32 11.34 4 11 C4 10.34 4 9.68 4 9 C4.33 8.67 4.66 8.34 5 8 C4.360625 7.4225 3.72125 6.845 3.0625 6.25 C1.01776132 4.01937599 0.41794801 2.92563609 0 0 Z " fill="#4F4F4F" transform="translate(153,102)"/>
<path d="M0 0 C0.99 0.495 0.99 0.495 2 1 C1.01 1.495 1.01 1.495 0 2 C0 1.34 0 0.68 0 0 Z M0 3 C-0.99 3.33 -1.98 3.66 -3 4 C-3 10.6 -3 17.2 -3 24 C-4.98 24 -6.96 24 -9 24 C-8.67 23.34 -8.34 22.68 -8 22 C-7.84995027 20.6265365 -7.75161994 19.2471474 -7.68359375 17.8671875 C-7.64169922 17.06152344 -7.59980469 16.25585938 -7.55664062 15.42578125 C-7.51732422 14.58402344 -7.47800781 13.74226562 -7.4375 12.875 C-7.39431641 12.02550781 -7.35113281 11.17601562 -7.30664062 10.30078125 C-7.20045764 8.20071777 -7.09971503 6.10038052 -7 4 C-3.375 1.875 -3.375 1.875 0 3 Z " fill="#373737" transform="translate(166,117)"/>
<path d="M0 0 C2.475 0.495 2.475 0.495 5 1 C5 1.66 5 2.32 5 3 C6.65 2.67 8.3 2.34 10 2 C10.99 3.98 11.98 5.96 13 8 C13.66 8 14.32 8 15 8 C15 8.66 15 9.32 15 10 C14.34 10 13.68 10 13 10 C13.33 10.66 13.66 11.32 14 12 C14.66 12 15.32 12 16 12 C16.33 14.31 16.66 16.62 17 19 C15 16 15 16 15 14 C13.35 14.66 11.7 15.32 10 16 C9.67 15.01 9.34 14.02 9 13 C8.34 12.34 7.68 11.68 7 11 C8.32 10.34 9.64 9.68 11 9 C8.36 8.67 5.72 8.34 3 8 C3.33 6.68 3.66 5.36 4 4 C2.68 3.34 1.36 2.68 0 2 C0 1.34 0 0.68 0 0 Z " fill="#6A6A6A" transform="translate(144,101)"/>
<path d="M0 0 C0.66 0.33 1.32 0.66 2 1 C1.33871094 2.18916016 1.33871094 2.18916016 0.6640625 3.40234375 C-1.32607724 7.70496981 -2.47602022 11.97721959 -3.625 16.5625 C-3.8415625 17.39974609 -4.058125 18.23699219 -4.28125 19.09960938 C-5.29433653 23.04877077 -6.26166581 26.98838422 -7 31 C-7.33 31 -7.66 31 -8 31 C-8.79088561 20.57788525 -6.70348657 12.5629314 -3 3 C-2.34 3 -1.68 3 -1 3 C-0.67 2.01 -0.34 1.02 0 0 Z " fill="#515569" transform="translate(21,82)"/>
<path d="M0 0 C0.33 0 0.66 0 1 0 C1 3.63 1 7.26 1 11 C2.32 11 3.64 11 5 11 C5 11.66 5 12.32 5 13 C3.68 13.33 2.36 13.66 1 14 C1 18.62 1 23.24 1 28 C0.34 28 -0.32 28 -1 28 C-1 24.37 -1 20.74 -1 17 C-2.32 17.33 -3.64 17.66 -5 18 C-4.34 16.68 -3.68 15.36 -3 14 C-2.34 14 -1.68 14 -1 14 C-1.01160156 13.07316406 -1.02320312 12.14632812 -1.03515625 11.19140625 C-1.04417969 9.99386719 -1.05320312 8.79632813 -1.0625 7.5625 C-1.07410156 6.36753906 -1.08570312 5.17257813 -1.09765625 3.94140625 C-1 1 -1 1 0 0 Z " fill="#EDECED" transform="translate(78,131)"/>
<path d="M0 0 C0.66 0.33 1.32 0.66 2 1 C0.6242383 4.31457476 -0.68082461 5.75202388 -3.7734375 7.54296875 C-4.5159375 7.97673828 -5.2584375 8.41050781 -6.0234375 8.85742188 C-6.79945312 9.29634766 -7.57546875 9.73527344 -8.375 10.1875 C-9.14328125 10.63802734 -9.9115625 11.08855469 -10.703125 11.55273438 C-17.6676268 15.57117961 -17.6676268 15.57117961 -21 16 C-21.66 15.34 -22.32 14.68 -23 14 C-22.48091064 13.71801758 -21.96182129 13.43603516 -21.42700195 13.14550781 C-19.0527215 11.85203478 -16.68261184 10.55109455 -14.3125 9.25 C-13.49587891 8.8065625 -12.67925781 8.363125 -11.83789062 7.90625 C-7.58060142 5.56215554 -3.68363907 3.21099291 0 0 Z " fill="#DBDADA" transform="translate(103,106)"/>
<path d="M0 0 C0 0.33 0 0.66 0 1 C-1.97908485 1.02752977 -3.95828731 1.04663002 -5.9375 1.0625 C-7.03964844 1.07410156 -8.14179688 1.08570313 -9.27734375 1.09765625 C-12.75639097 1.00639058 -16.09903701 0.66902326 -19.54858398 0.25610352 C-24.04134658 -0.21326288 -28.55081966 -0.37098121 -33.0625 -0.5625 C-34.02349609 -0.60568359 -34.98449219 -0.64886719 -35.97460938 -0.69335938 C-38.31630277 -0.79821132 -40.65807929 -0.90037788 -43 -1 C-43 -1.33 -43 -1.66 -43 -2 C-28.36475377 -3.16437087 -14.45644589 -3.09566305 0 0 Z " fill="#E4E5E5" transform="translate(138,140)"/>
<path d="M0 0 C0.33 1.32 0.66 2.64 1 4 C0.01 4.495 0.01 4.495 -1 5 C0.32 5.66 1.64 6.32 3 7 C2.67 7.66 2.34 8.32 2 9 C1.01 8.67 0.02 8.34 -1 8 C-1 8.66 -1 9.32 -1 10 C-5.06361108 11.04867383 -8.85147173 11.04937219 -13.01171875 10.9375 C-15.07595214 10.86343811 -15.07595214 10.86343811 -17 12 C-16.2890625 10.046875 -16.2890625 10.046875 -15 8 C-12.8359375 7.390625 -12.8359375 7.390625 -10.375 7.25 C-9.55773437 7.19328125 -8.74046875 7.1365625 -7.8984375 7.078125 C-7.27195313 7.05234375 -6.64546875 7.0265625 -6 7 C-6 6.34 -6 5.68 -6 5 C-4.34467377 3.98133771 -2.67739862 2.98189187 -1 2 C-0.67 1.34 -0.34 0.68 0 0 Z " fill="#747474" transform="translate(177,87)"/>
<path d="M0 0 C2.5625 0.1875 2.5625 0.1875 4.5625 2.1875 C4.1875 5.8125 4.1875 5.8125 3.5625 9.1875 C1.56295254 9.23004356 -0.43791636 9.22830783 -2.4375 9.1875 C-3.4375 8.1875 -3.4375 8.1875 -3.5625 4.6875 C-3.40444215 0.26188017 -3.40444215 0.26188017 0 0 Z " fill="#5C5C5C" transform="translate(101.4375,151.8125)"/>
<path d="M0 0 C2.65984949 -0.08590056 5.05415464 0.0030968 7.6875 0.25 C8.81369751 0.33689087 8.81369751 0.33689087 9.96264648 0.42553711 C11.5266724 0.54650333 13.09024432 0.67347489 14.65332031 0.80615234 C18.28664369 1.1062833 21.92431591 1.33054861 25.5625 1.5625 C27.70838015 1.70764278 29.85423253 1.85320077 32 2 C32 2.33 32 2.66 32 3 C9.34352518 4.71223022 9.34352518 4.71223022 -2 3 C-1.34 2.01 -0.68 1.02 0 0 Z " fill="#B7B7B7" transform="translate(133,139)"/>
<path d="M0 0 C6.10377784 0.44391112 11.92434781 1.56044796 17.875 2.9375 C18.99926392 3.19225098 18.99926392 3.19225098 20.14624023 3.45214844 C23.57713036 4.26708671 26.0374058 5.0249372 29 7 C22.4219574 7.37322228 16.45203736 5.96749151 10.0625 4.5 C8.99708984 4.26152344 7.93167969 4.02304688 6.83398438 3.77734375 C4.22109187 3.19149341 1.60992993 2.59888542 -1 2 C-0.67 1.34 -0.34 0.68 0 0 Z " fill="#C8C8C8" transform="translate(81,129)"/>
<path d="M0 0 C0 0.99 0 1.98 0 3 C-1.0828125 3.0928125 -1.0828125 3.0928125 -2.1875 3.1875 C-5.84657625 4.24456647 -7.49211602 6.20550071 -10 9 C-11.0625 7.1875 -11.0625 7.1875 -12 5 C-11.67 4.01 -11.34 3.02 -11 2 C-11.66 1.67 -12.32 1.34 -13 1 C-8.20862412 -0.6290678 -4.94367454 -1.20577428 0 0 Z " fill="#3F3F3F" transform="translate(155,109)"/>
<path d="M0 0 C1.55180222 2.32770333 2.93075485 4.61115663 4.27734375 7.0546875 C4.92413086 8.22451172 4.92413086 8.22451172 5.58398438 9.41796875 C6.25397461 10.63419922 6.25397461 10.63419922 6.9375 11.875 C10.85983416 19.00004843 10.85983416 19.00004843 15 26 C10.65631207 24.48408207 9.21742094 21.59819026 6.9375 17.75 C6.26589844 16.63109375 5.59429687 15.5121875 4.90234375 14.359375 C-0.43531194 4.93353537 -0.43531194 4.93353537 0 0 Z " fill="#534E47" transform="translate(21,173)"/>
<path d="M0 0 C0.66 0 1.32 0 2 0 C2 1.65 2 3.3 2 5 C3.134375 5.350625 4.26875 5.70125 5.4375 6.0625 C7.375 6.8671875 7.375 6.8671875 9 8 C9.9375 11.6875 9.9375 11.6875 10 15 C9.01 15.495 9.01 15.495 8 16 C8 13.69 8 11.38 8 9 C3.33461951 8.86329309 3.33461951 8.86329309 -1.25 9.5625 C-3 10 -3 10 -6 9 C-6 8.01 -6 7.02 -6 6 C-4.02 6 -2.04 6 0 6 C0 4.02 0 2.04 0 0 Z " fill="#777777" transform="translate(186,101)"/>
<path d="M0 0 C4.16138263 -0.08159574 7.9472484 0.01751476 12 1 C11.67 2.32 11.34 3.64 11 5 C7.7 5 4.4 5 1 5 C0.67 3.35 0.34 1.7 0 0 Z " fill="#6E6E6E" transform="translate(105,167)"/>
<path d="M0 0 C3.63 0 7.26 0 11 0 C11 1.65 11 3.3 11 5 C10.34 5 9.68 5 9 5 C8.67 4.34 8.34 3.68 8 3 C7.67 3.66 7.34 4.32 7 5 C4.69 5 2.38 5 0 5 C0 3.35 0 1.7 0 0 Z " fill="#777777" transform="translate(93,167)"/>
<path d="M0 0 C0.66 -0.33 1.32 -0.66 2 -1 C2.33 0.65 2.66 2.3 3 4 C5.64 4.66 8.28 5.32 11 6 C11 6.66 11 7.32 11 8 C9.3125 8.6796875 9.3125 8.6796875 7 9 C4.5625 7.8203125 4.5625 7.8203125 2 6.125 C-1.00646584 4.15429831 -3.44031292 2.64272128 -7 2 C-7 1.34 -7 0.68 -7 0 C-3.7807732 -1.0730756 -3.09793558 -0.79946725 0 0 Z " fill="#757575" transform="translate(158,100)"/>
<path d="M0 0 C0.66 0 1.32 0 2 0 C2 3.96 2 7.92 2 12 C3.32 11.67 4.64 11.34 6 11 C6 11.66 6 12.32 6 13 C7.32 13.33 8.64 13.66 10 14 C6.18510326 15.46726798 3.70988378 14.43336419 0 13 C-0.144375 12.113125 -0.28875 11.22625 -0.4375 10.3125 C-0.91019978 7.52882354 -1.43070185 4.76516243 -2 2 C-1.34 2 -0.68 2 0 2 C0 1.34 0 0.68 0 0 Z " fill="#959595" transform="translate(126,96)"/>
<path d="M0 0 C1.65 0 3.3 0 5 0 C5.33 2.97 5.66 5.94 6 9 C4.02 9 2.04 9 0 9 C0 6.03 0 3.06 0 0 Z " fill="#8A8A8A" transform="translate(135,152)"/>
<path d="M0 0 C2.31 0 4.62 0 7 0 C7 1.65 7 3.3 7 5 C4.36 5 1.72 5 -1 5 C-0.67 3.35 -0.34 1.7 0 0 Z " fill="#787878" transform="translate(85,167)"/>
<path d="M0 0 C0.66 0 1.32 0 2 0 C2 0.66 2 1.32 2 2 C3.32 2 4.64 2 6 2 C6 3.32 6 4.64 6 6 C6.66 6.33 7.32 6.66 8 7 C8 7.66 8 8.32 8 9 C4.19522126 8.280177 0.6733715 7.22445717 -3 6 C-1.02 5.67 0.96 5.34 3 5 C3 4.34 3 3.68 3 3 C2.01 3 1.02 3 0 3 C0 2.01 0 1.02 0 0 Z " fill="#646464" transform="translate(171,107)"/>
<path d="M0 0 C0.99 0 1.98 0 3 0 C2.67 1.65 2.34 3.3 2 5 C2.99 5 3.98 5 5 5 C4.67 5.99 4.34 6.98 4 8 C2.35 8.33 0.7 8.66 -1 9 C-1.09765625 2.84765625 -1.09765625 2.84765625 -1 1 C-0.67 0.67 -0.34 0.34 0 0 Z " fill="#343434" transform="translate(162,108)"/>
<path d="M0 0 C0 0.66 0 1.32 0 2 C-1.2375 2.28875 -2.475 2.5775 -3.75 2.875 C-6.10302257 3.45293537 -7.97657776 3.98759999 -10.125 5.125 C-12.77042093 6.35952977 -15.12420987 6.13071773 -18 6 C-15.52993736 3.0309348 -13.26118936 2.26101057 -9.5625 1.3125 C-8.14130859 0.93544922 -8.14130859 0.93544922 -6.69140625 0.55078125 C-4 0 -4 0 0 0 Z " fill="#C4C2C3" transform="translate(88,70)"/>
<path d="M0 0 C0 3.88091967 -1.65317733 6.39673296 -3.5 9.6875 C-3.83386719 10.29400391 -4.16773438 10.90050781 -4.51171875 11.52539062 C-5.335537 13.02003231 -6.16703451 14.51043671 -7 16 C-8.31767252 13.36465495 -7.75847597 12.45417473 -6.875 9.6875 C-5.35441357 5.3025531 -3.53021469 2.95774744 0 0 Z " fill="#4D4F5D" transform="translate(30,65)"/>
<path d="M0 0 C2.31 0.33 4.62 0.66 7 1 C7 2.32 7 3.64 7 5 C4.69 5.33 2.38 5.66 0 6 C0 4.02 0 2.04 0 0 Z " fill="#6D6D6D" transform="translate(120,167)"/>
<path d="M0 0 C2.64 0 5.28 0 8 0 C8 1.65 8 3.3 8 5 C5.69 5 3.38 5 1 5 C0.67 3.35 0.34 1.7 0 0 Z " fill="#6C6C6C" transform="translate(128,167)"/>
<path d="M0 0 C0.99 0.33 1.98 0.66 3 1 C3.04254356 2.99954746 3.04080783 5.00041636 3 7 C2 8 2 8 -0.4375 8.1875 C-3 8 -3 8 -5 6 C-4.625 3.375 -4.625 3.375 -4 1 C-3.731875 1.639375 -3.46375 2.27875 -3.1875 2.9375 C-2.11332248 5.33131686 -2.11332248 5.33131686 1 6 C0.67 4.02 0.34 2.04 0 0 Z " fill="#8A8A8A" transform="translate(153,153)"/>
<path d="M0 0 C0.66 0 1.32 0 2 0 C2 0.99 2 1.98 2 3 C2.66 3 3.32 3 4 3 C4 3.66 4 4.32 4 5 C3.34 5 2.68 5 2 5 C2 5.99 2 6.98 2 8 C2.99 7.67 3.98 7.34 5 7 C5 7.66 5 8.32 5 9 C3.02 9 1.04 9 -1 9 C-1.09765625 2.84765625 -1.09765625 2.84765625 -1 1 C-0.67 0.67 -0.34 0.34 0 0 Z " fill="#717171" transform="translate(191,152)"/>
<path d="M0 0 C0.66 0 1.32 0 2 0 C3.64920633 3.29841266 3.66486707 6.9962313 4.0625 10.625 C4.15337891 11.42679688 4.24425781 12.22859375 4.33789062 13.0546875 C4.56197653 15.03607868 4.7814275 17.01799305 5 19 C2.93421237 15.90131855 2.25308642 13.65023694 1.375 10.0625 C1.11460938 9.02222656 0.85421875 7.98195312 0.5859375 6.91015625 C0 4 0 4 0 0 Z " fill="#373532" transform="translate(12,147)"/>
<path d="M0 0 C0.99 0.33 1.98 0.66 3 1 C2.67 3.31 2.34 5.62 2 8 C0.00045254 8.04254356 -2.00041636 8.04080783 -4 8 C-5 7 -5 7 -5.0625 3.9375 C-5.041875 2.968125 -5.02125 1.99875 -5 1 C-4.7525 1.639375 -4.505 2.27875 -4.25 2.9375 C-3.18437567 5.18741541 -3.18437567 5.18741541 -0.875 5.75 C-0.25625 5.8325 0.3625 5.915 1 6 C0.67 4.02 0.34 2.04 0 0 Z " fill="#9B9B9B" transform="translate(103,153)"/>
<path d="M0 0 C4.98245614 4.98245614 4.98245614 4.98245614 5.0625 9.625 C5.041875 10.73875 5.02125 11.8525 5 13 C4.67 13 4.34 13 4 13 C3.67 11.35 3.34 9.7 3 8 C2.34 9.32 1.68 10.64 1 12 C0.67 8.04 0.34 4.08 0 0 Z " fill="#C5C5C5" transform="translate(115,77)"/>
<path d="M0 0 C0.66 0 1.32 0 2 0 C2 0.66 2 1.32 2 2 C3.32 1.67 4.64 1.34 6 1 C6.33 1.66 6.66 2.32 7 3 C6 4.9375 6 4.9375 4 7 C1.30075428 7.66549451 -1.20631637 7.81680763 -4 8 C-3.34 7.67 -2.68 7.34 -2 7 C-2 6.34 -2 5.68 -2 5 C-0.02 4.67 1.96 4.34 4 4 C2.68 3.34 1.36 2.68 0 2 C0 1.34 0 0.68 0 0 Z " fill="#8C8C8C" transform="translate(136,107)"/>
<path d="M0 0 C0.66 0.33 1.32 0.66 2 1 C0.7934375 1.8971875 0.7934375 1.8971875 -0.4375 2.8125 C-3.22327984 4.80947276 -3.22327984 4.80947276 -4 8 C-4.99 8.33 -5.98 8.66 -7 9 C-7 7 -7 5 -7 3 C-4.69631264 1.93347808 -2.35981813 0.93578995 0 0 Z " fill="#7E7E7E" transform="translate(158,120)"/>
<path d="M0 0 C-7.5 5 -7.5 5 -11 5 C-11 4.34 -11 3.68 -11 3 C-11.66 2.67 -12.32 2.34 -13 2 C-8.50343896 -0.24828052 -4.92127034 -0.16682272 0 0 Z " fill="#CCCCCC" transform="translate(94,139)"/>
<path d="M0 0 C1.32 0 2.64 0 4 0 C4 0.66 4 1.32 4 2 C5.65 1.67 7.3 1.34 9 1 C9.33 3.31 9.66 5.62 10 8 C8 5 8 5 8 3 C6.35 3.66 4.7 4.32 3 5 C2.67 4.01 2.34 3.02 2 2 C1.34 1.34 0.68 0.68 0 0 Z " fill="#797979" transform="translate(151,112)"/>
<path d="M0 0 C0.99 0 1.98 0 3 0 C3 0.99 3 1.98 3 3 C3.66 3 4.32 3 5 3 C5.33 2.01 5.66 1.02 6 0 C6.66 0.33 7.32 0.66 8 1 C7.67 1.99 7.34 2.98 7 4 C4.69 4 2.38 4 0 4 C0 2.68 0 1.36 0 0 Z " fill="#7D7D7D" transform="translate(142,168)"/>
<path d="M0 0 C2.4375 0.75 2.4375 0.75 5 2 C5.875 4.0625 5.875 4.0625 6 6 C5 7 5 7 2.4375 7.0625 C1.2309375 7.0315625 1.2309375 7.0315625 0 7 C0 6.34 0 5.68 0 5 C1.32 5.33 2.64 5.66 4 6 C3.34 5.38125 2.68 4.7625 2 4.125 C0 2 0 2 0 0 Z " fill="#989898" transform="translate(113,154)"/>
<path d="M0 0 C-0.39803561 2.88575819 -0.79009069 3.82189513 -3.0625 5.75 C-3.701875 6.1625 -4.34125 6.575 -5 7 C-5.66 6.34 -6.32 5.68 -7 5 C-2.25 0 -2.25 0 0 0 Z " fill="#B8B8B8" transform="translate(194,128)"/>
<path d="M0 0 C0.66 0 1.32 0 2 0 C2 0.66 2 1.32 2 2 C2.66 2 3.32 2 4 2 C4 2.66 4 3.32 4 4 C1.5 5.625 1.5 5.625 -1 7 C-1.625 5.1875 -1.625 5.1875 -2 3 C-1.34 2.01 -0.68 1.02 0 0 Z " fill="#686868" transform="translate(145,111)"/>
<path d="M0 0 C2 2 2 2 2.125 5.625 C2.08375 6.73875 2.0425 7.8525 2 9 C1.01 9.33 0.02 9.66 -1 10 C-0.67 6.7 -0.34 3.4 0 0 Z " fill="#F2F2F2" transform="translate(117,83)"/>
<path d="M0 0 C3.98069267 2.87494471 6.43571997 5.82117329 9 10 C4.71095765 8.4114658 2.67654474 5.56872632 0 2 C0 1.34 0 0.68 0 0 Z " fill="#514E4A" transform="translate(36,200)"/>
<path d="M0 0 C1.32 0 2.64 0 4 0 C4 1.65 4 3.3 4 5 C2.68 4.67 1.36 4.34 0 4 C0 2.68 0 1.36 0 0 Z " fill="#373737" transform="translate(150,154)"/>
<path d="M0 0 C0.99 0.33 1.98 0.66 3 1 C3 2.32 3 3.64 3 5 C1.68 5 0.36 5 -1 5 C-0.67 3.35 -0.34 1.7 0 0 Z " fill="#6A6A6A" transform="translate(138,167)"/>
<path d="M0 0 C2.97 0.33 5.94 0.66 9 1 C5.1496895 3.56687367 3.41430237 2.83288724 -1 2 C-0.67 1.34 -0.34 0.68 0 0 Z " fill="#C1BFC0" transform="translate(81,129)"/>
<path d="M0 0 C1.67542976 0.28604898 3.34385343 0.61781233 5 1 C3.68 1.33 2.36 1.66 1 2 C0.67 3.65 0.34 5.3 0 7 C-0.33 7 -0.66 7 -1 7 C-1.04254356 5.00045254 -1.04080783 2.99958364 -1 1 C-0.67 0.67 -0.34 0.34 0 0 Z " fill="#7F7F7F" transform="translate(130,114)"/>
<path d="M0 0 C2.375 0.1875 2.375 0.1875 5 1 C6.3125 3.5625 6.3125 3.5625 7 6 C5 6 5 6 3.5 4.5625 C3.005 4.046875 2.51 3.53125 2 3 C1.34 2.67 0.68 2.34 0 2 C0 1.34 0 0.68 0 0 Z " fill="#838383" transform="translate(144,101)"/>
</svg>
